<?xml version="1.0" encoding="UTF-8" standalone="no"?>
<svg
   xmlns:dc="http://purl.org/dc/elements/1.1/"
   xmlns:cc="http://creativecommons.org/ns#"
   xmlns:rdf="http://www.w3.org/1999/02/22-rdf-syntax-ns#"
   xmlns:svg="http://www.w3.org/2000/svg"
   xmlns="http://www.w3.org/2000/svg"
   xmlns:sodipodi="http://sodipodi.sourceforge.net/DTD/sodipodi-0.dtd"
   xmlns:inkscape="http://www.inkscape.org/namespaces/inkscape"
   width="14.66999mm"
   height="14.411184mm"
   viewBox="0 0 14.66999 14.411184"
   version="1.1"
   id="svg859"
   inkscape:version="1.0.1 (3bc2e813f5, 2020-09-07)"
   sodipodi:docname="favicon.svg">
  <style
     id="style2">
    path { fill:#0ca4a5; }
    @media (prefers-color-scheme: dark) {
      path { fill: #00f9fb; }
    }
   </style>
  <defs
     id="defs853" />
  <sodipodi:namedview
     id="base"
     pagecolor="#ffffff"
     bordercolor="#666666"
     borderopacity="1.0"
     inkscape:pageopacity="0.0"
     inkscape:pageshadow="2"
     inkscape:zoom="11.2"
     inkscape:cx="26.251085"
     inkscape:cy="41.865344"
     inkscape:document-units="mm"
     inkscape:current-layer="layer1"
     inkscape:document-rotation="0"
     showgrid="false"
     inkscape:window-width="1403"
     inkscape:window-height="801"
     inkscape:window-x="578"
     inkscape:window-y="123"
     inkscape:window-maximized="0" />
  <metadata
     id="metadata856">
    <rdf:RDF>
      <cc:Work
         rdf:about="">
        <dc:format>image/svg+xml</dc:format>
        <dc:type
           rdf:resource="http://purl.org/dc/dcmitype/StillImage" />
        <dc:title />
      </cc:Work>
    </rdf:RDF>
  </metadata>
  <g
     inkscape:label="Layer 1"
     inkscape:groupmode="layer"
     id="layer1"
     transform="translate(-127.98045,-54.026551)">
    <path
       id="path80-9-9-1"
       style="fill-opacity:1;stroke-width:0.245669;stroke-miterlimit:4;stroke-dasharray:none;stroke-opacity:1"
       d="M 53.023438 0.13867188 C 52.423437 0.13867188 51.923425 0.33861518 51.523438 0.63867188 C 51.12345 1.0386593 50.921875 1.6382813 50.921875 2.2382812 L 50.722656 5.9375 L 22.421875 17.539062 L 17.623047 12.738281 C 16.623059 11.738294 15.023066 11.738294 14.123047 12.738281 C 13.123059 13.738269 13.123059 15.3383 14.123047 16.238281 L 18.822266 20.9375 L 14.660156 31.357422 C 14.660156 31.457579 10.523438 41.837891 10.523438 41.837891 L 7.4355469 49.738281 L 2.2226562 49.9375 C 1.6226562 49.9375 1.1226814 50.137443 0.72265625 50.4375 C 0.32266885 50.837487 0.12304688 51.438662 0.12304688 52.138672 C 0.32298388 53.338672 1.2222719 54.437897 2.3222656 54.337891 L 4.8222656 54.337891 L 26.523438 54.337891 L 27.322266 54.337891 L 28.322266 54.337891 L 30.023438 54.337891 L 54.623047 54.337891 C 54.822984 54.337891 54.923148 54.238451 55.123047 54.138672 C 55.223204 54.038514 55.322266 53.838571 55.322266 53.638672 L 55.322266 30.9375 L 55.023438 1.5390625 C 55.023438 1.438905 55.022032 1.2386026 54.921875 1.1386719 C 54.521888 0.43866558 53.723406 0.038665576 53.023438 0.13867188 z M 50.322266 11.238281 L 50.623047 25.138672 L 35.023438 30.039062 L 25.423828 20.4375 L 50.322266 11.238281 z M 22.322266 24.337891 L 31.322266 33.337891 L 26.023438 49.238281 L 12.341797 49.539062 L 15.175781 42.314453 L 22.322266 24.337891 z M 50.222656 31.238281 L 50.423828 45.539062 L 39.123047 34.238281 L 50.222656 31.238281 z M 35.523438 37.738281 L 46.523438 48.638672 L 47.023438 49.238281 L 31.722656 49.138672 L 35.523438 37.738281 z "
       transform="matrix(0.26458333,0,0,0.26458333,127.98045,54.026551)" />
  </g>
</svg>
