<svg version="1" xmlns="http://www.w3.org/2000/svg" width="1173.333" height="1173.333" viewBox="0 0 880.000000 880.000000"><path d="M844.6 9.8c-.3.2-2.9.6-5.8.7-6.1.4-13.7 2.7-18.3 5.7-6.6 4.4-11.4 14.2-12.1 24.8-.6 9.7-1.4 22.2-2 34-.3 5.8-.6 12.7-.8 15.5-.2 2.7-.4 6.7-.5 8.7 0 2.1-.5 3.8-1.1 3.8-.8 0-43.6 17.3-49.5 20-1.1.5-7.2 3-13.5 5.5s-12.4 5-13.5 5.5c-3.7 1.7-31.3 13-31.8 13-.2 0-2.6 1-5.3 2.2-2.7 1.2-5.1 2.3-5.4 2.3-.7.2-6.1 2.4-9 3.6-6.3 2.7-8.9 3.8-14 5.8-3 1.2-6.4 2.6-7.5 3.1-4.1 1.8-22 9.2-23 9.4-.5.2-2.1.8-3.5 1.3-6.3 2.7-62.6 25.8-71.5 29.4-5.5 2.2-11.1 4.7-12.5 5.4-1.4.7-2.7 1.3-3 1.3-.5.1-3.9 1.3-8.5 3.3-1.6.7-3.2 1.3-3.5 1.4-1.4.5-4.9 1.9-8.5 3.5-2.2 1-6.7 2.8-10 4.1-3.3 1.3-7.1 2.9-8.5 3.6-1.4.7-3 1.3-3.6 1.3-.5 0-3.5 1.2-6.5 2.6-3 1.5-6 2.7-6.6 2.7-.7 0-1.3.5-1.3 1 0 .6-.3.8-.6.5-.3-.4-3.1.5-6.2 1.9s-15.1 6.3-26.7 11c-11.5 4.7-22.3 9.1-24 9.9-1.6.7-5.5 2.3-8.5 3.4-3 1.2-6.8 2.7-8.5 3.5-2.7 1.1-6 2.5-7.5 3-.3.1-1.6.6-3 1.2s-5.4 2.3-9 3.7c-9.8 4.1-13.3 5.6-15 6.5-.9.5-3 1.2-4.8 1.6-1.8.3-3.2 1.1-3.2 1.6s-.7.9-1.6.9c-.9 0-3.1.7-5 1.6-1.8.9-3.8 1.4-4.4 1.2-.5-.1-19.1-18.3-41.2-40.4-39.1-38.8-42.7-42-51.3-45-8.6-3-20-2.2-28.9 2-6.6 3.1-18.2 15.7-19.2 20.9-.2.7-1 3.6-1.8 6.6-2.2 7.8-1.3 16.9 2.4 24.5 2.5 5.3 8.3 11.5 42.8 46.1l39.9 39.9-1.2 3.1c-.7 1.6-1.6 3.9-2 5-.5 1.1-.9 2.2-1 2.5-.1.3-.5 1.4-1 2.5s-6.7 16.6-13.8 34.5c-7.1 17.9-13.4 33.6-14 35-.5 1.4-1.1 2.9-1.3 3.5-.3.9-13 32.7-14.9 37-1 2.4-1 2.3-1.9 5.7-.5 1.6-1.2 2.8-1.7 2.8s-.8.3-.7.7c.2 1.1-1.3 6.6-2.2 7.8-.4.5-2.4 5.5-4.5 11s-4.1 10.4-4.5 11c-.4.5-1.3 2.8-2 5s-4.7 12.5-8.8 23c-4.1 10.4-7.5 19.5-7.5 20.2 0 .7-.4 1.3-.9 1.3-.4 0-.8.8-.8 1.8s-.4 2.2-.8 2.7c-.5.6-2 4.1-3.5 8-1.4 3.8-3.2 8.3-3.8 10-.7 1.6-1.3 3.4-1.5 4-.1.5-1.4 3.6-2.8 6.8-1.4 3.1-2.6 6-2.7 6.5-.1.4-.5 1.6-.9 2.7-.5 1.1-2.7 6.7-5 12.5-2.2 5.8-5.3 13.4-6.8 17-1.5 3.6-2.7 6.7-2.8 7 0 .3-.6 1.8-1.3 3.5-.7 1.6-2.3 5.9-3.7 9.5-1.4 3.6-3.2 7.9-4 9.7-.8 1.7-1.4 3.4-1.4 3.8 0 .4-.6 2.1-1.4 3.8-2.5 5.5-11.8 29.1-12.1 30.7-.1.3-.9 2.2-1.8 4.4-.9 2.1-1.7 4-1.7 4.2 0 .1-.5 1.5-1.2 3.1-.6 1.5-1.2 3-1.3 3.3-.1.3-.5 1.4-1 2.5-.4 1.1-1.7 4.2-2.7 7-1 2.7-2.3 5.9-2.8 7-.4 1.1-2.3 5.8-4.1 10.5-1.8 4.7-3.8 9.8-4.4 11.5-4 9.8-17 43.1-17 43.5 0 .3-.9 2.5-1.9 4.8-1.6 3.6-2.4 4.2-5 4.3-4.1.1-22.1.7-37.6 1.3-6.9.3-20.1.8-29.5 1.1-9.3.3-19.4 1.2-22.3 2-7.4 1.9-13.7 5.9-17.2 10.9-3 4.4-6.6 16.7-5.6 19.2.3.7.1 1.6-.4 1.9-.7.4-.7 1.3-.1 2.4.6 1 1.2 2.8 1.4 4.2.5 2.9 1.5 5.7 3 8.4.6 1.1 1.7 3.2 2.4 4.7 2.2 4.2 10.8 12.3 15.5 14.6l4.3 2.1h419.8c458.5 0 424.9.5 428.1-5.7 1.7-3.2 2.4-10.1 1.2-12-.4-.7-.4-1.2.1-1.2.9 0 .8-9.4-.2-10.9-.3-.6-.3-1.1.2-1.1.7 0 .9-15.5.3-18.5-.1-.6-.1-1.5 0-2 .4-2.4.2-9.4-.4-10.4-.4-.6-.4-1.1.1-1.1.7 0 .9-15.5.3-18.5-.1-.6-.1-1.5 0-2 .4-2.4.2-9.4-.4-10.4-.4-.6-.4-1.1.1-1.1.9 0 .9-20 0-22.4-.4-.9-.2-1.8.3-2.1.7-.4.7-1.3 0-2.4-.5-1-.6-2.1-.3-2.5.5-.5.6-4.4.2-10.1-.1-.6 0-6.6.1-13.5s.1-13 0-13.5c-.1-.6-.1-1.5 0-2 .4-2.4.2-9.4-.4-10.4-.4-.6-.4-1.1.1-1.1.8 0 .8-24.3-.1-26.5-.2-.7-.2-1.6.1-1.9.8-.8.7-9.1-.1-10.4-.3-.6-.2-1.3.4-1.7.7-.4.7-1.2 0-2.4-.5-1-.6-2.1-.3-2.5.8-.8.8-6.8 0-8.9-.3-.9-.2-1.9.3-2.2.7-.4.7-1.3 0-2.4-.5-1-.6-2.1-.3-2.5.8-.8.8-6.8 0-8.9-.3-.9-.2-1.9.3-2.2.7-.4.7-1.3 0-2.4-.5-1-.6-2.1-.3-2.5.5-.5.6-4.4.2-10.1-.1-.6 0-6.6.1-13.5s.1-13 0-13.5c-.1-.6-.1-1.5 0-2 .4-2.4.2-9.4-.4-10.4-.4-.6-.4-1.1.1-1.1.8 0 .8-24.3-.1-26.5-.2-.7-.2-1.6.1-1.9.8-.8.7-9.1-.1-10.4-.3-.6-.2-1.3.4-1.7.7-.4.7-1.2 0-2.4-.5-1-.6-2.1-.3-2.5.8-.8.8-8.5 0-9.2-.3-.4-.2-1.7.3-3 .6-1.4.6-2.4 0-2.4-.5 0-.5-1.2 0-2.9.4-1.6.6-3.1.4-3.4-.4-.4-1.1-59.7-1.8-152.5-.1-21.5-.5-39.5-.9-39.8-.3-.3-.2-1.7.3-3s.5-2.6.1-2.9c-.5-.3-.5-2.1-.1-4s.5-3.5.1-3.5c-.3 0-.7-18.1-.8-40.3-.1-45.1-1.8-207.7-2.2-224.7-.1-4.7-4.9-11-12-16-3.3-2.3-15.6-6.2-16.5-5.2zm-45.7 189.9c.2 7.1.4 20.5.6 30 .2 9.4.6 17.7 1 18.2.3.6.1 1.1-.5 1.1s-.8.5-.4 1.1c.3.6.8 9.9 1 20.7.2 10.9.6 31.4.9 45.7.3 14.3.8 37.2 1.1 51 .3 13.7.6 28.3.7 32.3l.2 7.2-6.5 2.2c-3.6 1.2-6.8 2.3-7.2 2.4-.5.1-.9.2-1 .4-.3.2-1.7.5-5.5 1.4-1.2.2-3.2 1-4.5 1.7-1.3.7-2.4 1.2-2.5 1.1-.7-.4-6.4 1.2-6.9 1.9-.3.5-1.3.9-2.2.9-.9 0-7.3 1.8-14.2 4.1-6.9 2.2-13.2 4.2-14 4.4-1.8.4-17.4 5.3-31 9.8-5.2 1.7-10 3.2-10.5 3.3-1.1.2-28.2 8.7-43.2 13.6-5.1 1.6-9.8 3.1-10.5 3.2-.7.1-8 2.4-16.3 5.1-8.2 2.6-15.6 4.8-16.2 4.8-.7 0-1.3.5-1.3 1 0 .6-.3.8-.6.4-.3-.3-3.1.4-6.2 1.5-3.2 1.1-6.1 2.1-6.7 2.2-3.2.7-13.3 3.8-15 4.6-1.1.5-6 2-11 3.5-4.9 1.4-9.7 2.9-10.5 3.2-.8.3-2.1.7-2.9.9-.8.1-35.7-34-77.5-75.8l-76-76.2 3.9-1.7c2.2-1 4.5-1.8 5.2-1.8.6-.1 2.4-.6 4-1.3 1.5-.6 3-1.2 3.3-1.3.3-.1 1.2-.5 2-.8 1.9-.8 15.1-5.7 16.5-6.1.6-.2 1.7-.6 2.5-.9 2.3-1 6.4-2.4 7.2-2.6.4-.1 2.8-1 5.3-2.1s4.7-2 5-2c.7-.1 2.1-.6 15.5-5.5 6.9-2.6 16.8-6.2 22-8.1 5.2-2 11.1-4.1 13-4.9 1.9-.7 4.4-1.7 5.5-2.1 1.1-.4 4.9-1.8 8.5-3.1 3.6-1.3 7-2.5 7.5-2.7.6-.1 2.1-.8 3.5-1.3 1.4-.6 5.9-2.2 10-3.7s8.2-2.9 9-3.3c.8-.3 1.7-.7 2-.8.3-.1 1.8-.7 3.3-1.3 1.6-.7 3.1-1.2 3.5-1.2.9 0 19.3-6.9 21.4-8.1 1-.5 2.2-.9 2.7-.9s2.2-.5 3.8-1.2c1.5-.6 3.1-1.1 3.6-1 .4.1.7-.2.7-.6 0-.4.8-.8 1.8-.9.9-.1 3.5-.9 5.7-1.9 2.2-1 4.5-1.9 5-2 .6-.1 4.2-1.4 8-2.9 3.9-1.5 7.5-2.8 8-2.9.6-.2 1.7-.6 2.5-.9 2.4-1.1 15.1-5.8 19.5-7.2 2.2-.8 8.3-3 13.5-5 5.2-2 10-3.8 10.5-3.9.6-.2 2.4-.9 4-1.5 1.7-.7 3.5-1.4 4-1.5.6-.2 2.4-.8 4-1.5 1.7-.6 5-1.9 7.5-2.8 2.5-.8 5.2-1.8 6-2.1.8-.3 2-.6 2.5-.8.6-.2 6.4-2.4 13-4.9 6.6-2.5 14-5.3 16.5-6.1 2.5-.8 5.4-1.9 6.5-2.4 1.1-.5 10.8-4.2 21.5-8.1 10.7-3.9 24.7-9.1 31-11.4 6.3-2.4 12-4.4 12.6-4.4.7-.1 1.2 4.3 1.3 12.6zm-373 266.5c39.1 39.1 71.1 71.7 71.1 72.3 0 .6-.5 1.6-1.2 2.3-.7.7-.9 1.2-.5 1.2s.1 1.7-.7 3.7c-.8 2.1-1.7 4.7-2.2 5.8-.4 1.1-.8 2.4-1 3-.1.5-3.7 11.1-7.8 23.5-4.2 12.4-7.8 23.2-8 24-.4 1.7-12.4 37.6-13.3 40-.3.8-.7 1.9-.9 2.5-.5 1.9-6.5 20-7.1 21.5-.3.8-.7 1.8-.8 2.2-.2.5-.3.9-.4 1-.2.2-.4 1.3-.6 2.4-.3 1.2-1 3.4-1.6 5-.7 1.6-1.3 3.1-1.4 3.4-.1.3-.7 2.5-1.4 5s-1.6 4.9-1.9 5.5c-.4.5-.7 1.4-.8 2-.3 1.3-6.3 19.5-7.1 21.5-.3.8-.7 1.8-.8 2.2-.2.5-.3.9-.5 1-.1.2-.3 1-.5 1.8s-1.4 4.7-2.8 8.7c-1.4 4-2.2 7.4-1.9 7.7.3.4-.1.6-.8.6-.7 0-1.1.2-.8.5.3.3-1.1 5.4-3.2 11.3-2 5.9-3.7 10.9-3.8 11.2-.1.7-1.2 4.1-2.4 7.2-.6 1.5-1 2.8-1 3 0 .2-1.4 4.8-3.2 10.3-2.9 8.8-3.6 10-5.7 10.2-1.3.1-13 .5-25.9.7-23.7.6-64.3 1.6-71.2 1.8-2.1.1-4.1-.1-4.4-.5-.4-.4-1.1-.4-1.7 0-.6.4-7.4.8-15.1.9-7.8.2-25.8.5-40.1.9-14.3.3-32.9.7-41.3.8-10.7.3-15.2 0-14.9-.7.3-.6 4.2-10.5 8.7-22.1 15.6-39.9 18.8-48 22.5-57.5 2-5.2 4-10.4 4.5-11.5 2.7-6 13-33.2 13-34.3 0-.7.5-1.2 1-1.2.6 0 1-.6 1-1.3 0-1.3 2.2-7 12-31.2 2.6-6.6 8.1-20.3 12.1-30.5 3.9-10.2 8.9-22.7 11.1-27.9 2.1-5.1 3.8-10 3.8-10.7 0-.8.4-1.4.8-1.4.5 0 .9-.6.9-1.3.1-.6 5.1-13.8 11.3-29.2 12.5-31.1 12.7-31.8 12.8-32.5.1-.3 1.2-3 2.6-6.1 1.4-3.1 2.2-6 1.9-6.3-.4-.3-.1-.6.5-.6.7 0 1.2-.5 1.2-1.1 0-1 13.5-35.8 16-41.4.5-1.1 1.9-4.5 3-7.5s2.5-6.4 3-7.5c.5-1.1 2.6-6.3 4.6-11.5 2-5.2 4.2-10.9 4.9-12.5 3.8-9.1 4.8-11.5 5.1-11.5.1 0 32.2 32 71.3 71.2zm371.6 67.4c.2 15.9.7 46.7 1 68.4.3 21.7.8 54.9 1 73.7.2 18.8.6 34.7.9 35.2.4.5.2 1.2-.4 1.6-.6.4-.7 1.1-.4 1.7.8 1.2 1.2 13.5.6 15.4-.3 1.1-178.2-176.2-178.2-177.7 0-.4 1.9-1.2 4.3-1.7 2.3-.6 7.8-2 12.2-3.2 4.4-1.2 8.7-2.3 9.5-2.5.8-.2 1.5-.4 1.5-.5 0-.1.8-.3 1.7-.5.9-.2 5-1.2 9-2.4 12.2-3.4 29.7-8.2 31.5-8.6 1-.2 5.2-1.3 9.3-2.5 4.1-1.2 8.6-2.3 10-2.6 1.4-.2 3.6-.9 5-1.4 2.5-.9 10-2.9 13.4-3.6 1-.2 3.3-.8 5-1.4 1.7-.5 9.2-2.6 16.6-4.5 13.6-3.6 15.6-4.1 18.8-5 4.1-1.1 9.8-2.6 11.2-3 .8-.2 1.5-.4 1.5-.5 0-.3 14-3.6 14.3-3.4.2.1.5 13.2.7 29zm-221.8 85.6c84.5 83.5 162.5 161.1 165.2 164.4 1.3 1.6 3 3.7 3.8 4.6 1.4 1.6-2.9 1.7-71.3 1.2-105.8-.7-167.7-1.2-169.2-1.3-1-.1-.9-.8.3-3.1.8-1.6 1.5-3.1 1.5-3.2-.1-.2.1-1 .4-1.8 4-11.9 9.6-29.7 9.7-30.5 0-.6.4-1.5.9-2 .4-.6 1.6-3.7 2.6-7 2.2-7.3 2-6.7 2.7-8.5.7-1.8 17.8-53.1 18.1-54.5.2-.6.6-1.7.9-2.5.8-2.3 7.1-21.4 7.2-22 0-.3.3-1 .6-1.5.3-.6 3.6-10.6 7.4-22.3 3.9-11.6 7.2-21.2 7.4-21.2.2 0 5.6 5.1 11.8 11.2z"/></svg>