<?xml version="1.0" encoding="UTF-8" standalone="no"?>
<svg
   width="993.58673"
   height="140.17302"
   viewBox="0 0 993.58673 140.17302"
   fill="none"
   version="1.1"
   id="svg56"
   sodipodi:docname="Full Logo-youngserif.svg"
   inkscape:version="1.2.1 (9c6d41e, 2022-07-14)"
   xmlns:inkscape="http://www.inkscape.org/namespaces/inkscape"
   xmlns:sodipodi="http://sodipodi.sourceforge.net/DTD/sodipodi-0.dtd"
   xmlns="http://www.w3.org/2000/svg"
   xmlns:svg="http://www.w3.org/2000/svg">
  <sodipodi:namedview
     id="namedview58"
     pagecolor="#505050"
     bordercolor="#eeeeee"
     borderopacity="1"
     inkscape:showpageshadow="0"
     inkscape:pageopacity="0"
     inkscape:pagecheckerboard="0"
     inkscape:deskcolor="#505050"
     showgrid="false"
     inkscape:zoom="0.8087705"
     inkscape:cx="355.47785"
     inkscape:cy="-19.164893"
     inkscape:window-width="1920"
     inkscape:window-height="1027"
     inkscape:window-x="1920"
     inkscape:window-y="25"
     inkscape:window-maximized="0"
     inkscape:current-layer="svg56" />
  <g
     id="g1161"
     inkscape:label="icon"
     transform="translate(-0.750626,-14.414544)">
    <path
       d="m 148.112,150.986 c 11.494,4.777 24.417,4.799 35.926,0.061 11.51,-4.738 20.664,-13.848 25.447,-25.326 l 44.89,-107.7076 c -11.493,-4.7772 -24.416,-4.7992 -35.926,-0.0611 -11.51,4.7381 -20.663,13.848 -25.447,25.3259 z"
       fill="url(#paint0_linear)"
       id="path2"
       style="fill:url(#paint0_linear)" />
    <path
       d="m 73.8789,150.988 c 11.4935,4.778 24.4165,4.8 35.9261,0.062 11.51,-4.739 20.663,-13.849 25.447,-25.326 l 44.89,-107.7078 c -11.493,-4.7772 -24.416,-4.7992 -35.926,-0.0611 -11.51,4.738 -20.663,13.848 -25.447,25.3259 z"
       fill="url(#paint1_linear)"
       id="path4"
       style="fill:url(#paint1_linear)" />
    <path
       d="m 9.18199,130.636 c 2.48891,-5.967 4.52371,-12.095 6.48561,-18.24 0.9643,-3.124 2.5602,-6.016 4.6891,-8.499 2.1288,-2.482 4.7452,-4.5023 7.6873,-5.9342 2.9421,-1.432 6.1472,-2.2457 9.4169,-2.3908 3.2697,-0.145 6.5344,0.3817 9.592,1.5476 3.0577,1.1659 5.8431,2.9464 8.184,5.2304 2.3409,2.284 4.1873,5.024 5.425,8.05 1.2377,3.026 1.8404,6.273 1.7707,9.541 -0.0698,3.267 -0.8104,6.486 -2.176,9.456 -0.9147,2.068 -2.1155,3.998 -3.5671,5.732 -6.2242,8.485 -15.1249,14.633 -25.2709,17.455 -10.146,2.823 -20.9476,2.156 -30.667974,-1.894 z"
       fill="url(#paint2_linear)"
       id="path6"
       style="fill:url(#paint2_linear)" />
    <path
       d="m 97.0919,38.466 c -2.4888,5.9667 -4.5237,12.0955 -6.4856,18.2404 -0.9643,3.1234 -2.5602,6.0159 -4.689,8.4985 -2.1289,2.4826 -4.7453,4.5024 -7.6874,5.9344 -2.9421,1.432 -6.1472,2.2457 -9.4169,2.3907 -3.2697,0.145 -6.5344,-0.3817 -9.592,-1.5475 -3.0576,-1.1659 -5.8431,-2.9461 -8.184,-5.2305 -2.3408,-2.2843 -4.1873,-5.0241 -5.425,-8.0499 -1.2377,-3.0257 -1.8404,-6.273 -1.7706,-9.5407 0.0697,-3.2677 0.8103,-6.4864 2.1759,-9.4568 0.9148,-2.0678 2.1155,-3.9973 3.5672,-5.732 6.2241,-8.4848 15.1248,-14.6327 25.2708,-17.455 10.146,-2.8223 20.9476,-2.1551 30.6677,1.8944 z"
       fill="url(#paint3_linear)"
       id="path8"
       style="fill:url(#paint3_linear)" />
  </g>
  <g
     id="g1175"
     inkscape:label="Name (Wotfard)"
     style="display:none"
     transform="translate(-0.750626,-14.414544)">
    <path
       d="M 290.167,126.778 V 47.0607 h 18.099 l 25.151,39.9696 25.317,-39.9696 h 17.878 v 79.7173 h -16.49 V 73.8554 l -26.261,41.1926 h -1.166 L 306.656,73.8554 v 52.9226 z"
       fill="#1c1e26"
       id="path10" />
    <path
       d="m 388.826,109.489 c 0,-5.448 1.98,-9.747 5.941,-12.8971 3.96,-3.1872 8.883,-4.7808 14.768,-4.7808 4.96,0 9.568,1.1489 13.825,3.4466 v -3.8913 c 0,-2.3348 -0.87,-4.262 -2.61,-5.7814 -1.739,-1.5195 -4.386,-2.2793 -7.939,-2.2793 -6.996,0 -13.936,2.1866 -20.82,6.5597 V 74.3001 c 6.921,-3.3354 14.361,-5.0032 22.319,-5.0032 7.81,0 13.917,1.9272 18.322,5.7815 4.441,3.8542 6.662,8.598 6.662,14.2311 v 37.4685 h -14.768 v -3.669 c -1.814,1.556 -4.09,2.835 -6.829,3.835 -2.739,1.038 -5.737,1.557 -8.995,1.557 -5.885,0 -10.678,-1.668 -14.379,-5.003 -3.665,-3.373 -5.497,-8.042 -5.497,-14.009 z m 15.546,-0.445 c 0,2.261 0.833,4.04 2.498,5.337 1.703,1.297 3.831,1.946 6.385,1.946 2.036,0 3.942,-0.39 5.719,-1.168 1.776,-0.815 3.238,-1.76 4.386,-2.835 v -6.726 c -1.074,-0.89 -2.517,-1.65 -4.331,-2.28 -1.814,-0.667 -3.738,-1 -5.774,-1 -2.554,0 -4.682,0.593 -6.385,1.779 -1.665,1.186 -2.498,2.835 -2.498,4.947 z"
       fill="#1c1e26"
       id="path12" />
    <path
       d="m 446.179,84.3064 v -13.175 h 9.993 V 55.9552 l 15.324,-5.6702 v 20.8464 h 14.71 v 13.175 h -14.71 v 22.3476 c 0,5.003 2.628,7.504 7.884,7.504 1.184,0 2.702,-0.24 4.552,-0.722 v 13.786 c -2.887,0.853 -6.07,1.279 -9.549,1.279 -2.591,0 -4.997,-0.352 -7.218,-1.056 -2.184,-0.667 -4.164,-1.705 -5.94,-3.113 -1.74,-1.409 -3.11,-3.299 -4.109,-5.671 -0.999,-2.372 -1.499,-5.133 -1.499,-8.283 V 84.3064 Z"
       fill="#1c1e26"
       id="path14" />
    <path
       d="m 486.206,84.3064 -0.008,-13.175 h 12.836 V 55.9552 l 15.324,-5.6702 v 20.8464 h 12.436 v 13.175 h -12.436 v 22.3476 c 0,5.003 2.627,7.504 7.883,7.504 1.185,0 16.94,0.061 18.481,-0.002 v 14.345 c -2.678,0 -19.998,0 -23.477,0 -2.591,0 -4.997,-0.352 -7.218,-1.056 -2.184,-0.667 -4.164,-1.705 -5.941,-3.113 -1.739,-1.409 -3.109,-3.299 -4.108,-5.671 -1,-2.372 -1.499,-5.133 -1.499,-8.283 V 84.3064 Z"
       fill="#1c1e26"
       id="path16" />
    <path
       d="m 540.722,128.501 v -14.345 c 0,0 6.859,0.002 11.265,0.002 4.406,0 7.879,-2.501 7.879,-7.504 0,-4.719 0,-59.5934 0,-59.5934 h 53.244 v 15.5097 h -36.421 v 18.4561 h 32.868 v 15.343 h -32.868 c 0,0 0,11.5916 0,14.0086 0,2.417 -0.166,5.32 -1.497,8.281 -1.33,2.96 -2.183,4.098 -4.11,5.675 -1.927,1.577 -3.758,2.408 -5.941,3.108 -2.183,0.7 -5.275,1.059 -7.215,1.059 -1.94,0 -17.204,0 -17.204,0 z"
       fill="#1c1e26"
       id="path18" />
    <path
       d="m 620.883,109.489 c 0,-5.448 1.98,-9.7471 5.941,-12.8973 3.96,-3.1871 8.883,-4.7807 14.768,-4.7807 4.96,0 9.568,1.1488 13.825,3.4466 v -3.8914 c 0,-2.3348 -0.87,-4.2619 -2.61,-5.7814 -1.739,-1.5195 -4.386,-2.2792 -7.939,-2.2792 -6.996,0 -13.936,2.1866 -20.82,6.5597 V 74.2999 c 6.921,-3.3354 14.361,-5.0031 22.319,-5.0031 7.81,0 13.917,1.9271 18.322,5.7814 4.441,3.8543 6.662,8.598 6.662,14.2312 v 37.4676 h -14.768 v -3.669 c -1.814,1.557 -4.09,2.836 -6.829,3.836 -2.739,1.038 -5.737,1.557 -8.995,1.557 -5.885,0 -10.678,-1.668 -14.379,-5.003 -3.665,-3.373 -5.497,-8.043 -5.497,-14.009 z m 15.546,-0.445 c 0,2.261 0.833,4.04 2.498,5.337 1.703,1.297 3.831,1.945 6.385,1.945 2.036,0 3.942,-0.389 5.719,-1.167 1.776,-0.815 3.238,-1.76 4.386,-2.835 v -6.727 c -1.074,-0.889 -2.517,-1.649 -4.331,-2.279 -1.813,-0.667 -3.738,-1 -5.774,-1 -2.554,0 -4.682,0.593 -6.385,1.778 -1.665,1.186 -2.498,2.836 -2.498,4.948 z"
       fill="#1c1e26"
       id="path20" />
    <path
       d="M 683.566,126.777 V 71.1313 h 15.712 v 4.3916 c 4.145,-4.1507 9.327,-6.2261 15.546,-6.2261 2.628,0 5.144,0.4447 7.55,1.3342 2.443,0.8894 4.627,2.168 6.552,3.8357 1.924,1.6677 3.442,3.8172 4.552,6.4485 1.148,2.6313 1.722,5.5405 1.722,8.7277 V 126.777 H 719.265 V 93.6454 c 0,-2.9648 -0.888,-5.3366 -2.665,-7.1155 -1.739,-1.7789 -3.96,-2.6684 -6.662,-2.6684 -4.072,0 -7.551,1.9272 -10.438,5.7814 v 37.1341 z"
       fill="#1c1e26"
       id="path22" />
    <path
       d="M 742.417,84.3062 V 71.1313 h 9.994 V 55.9551 l 15.323,-5.6703 v 20.8465 h 12.437 v 13.1749 h -12.437 v 22.3478 c 0,5.003 2.628,7.504 7.884,7.504 1.185,0 2.702,-0.241 4.553,-0.722 v 13.786 c -2.887,0.852 -6.07,1.279 -9.55,1.279 -2.59,0 -4.996,-0.352 -7.217,-1.057 -2.184,-0.667 -4.164,-1.704 -5.941,-3.113 -1.739,-1.408 -3.109,-3.298 -4.108,-5.67 -1,-2.372 -1.499,-5.133 -1.499,-8.283 V 84.3062 Z"
       fill="#1c1e26"
       id="path24" />
    <path
       d="m 788.11,50.2848 c 0,-2.8907 0.944,-5.244 2.832,-7.0599 1.888,-1.816 4.275,-2.724 7.162,-2.724 2.887,0 5.274,0.908 7.162,2.724 1.888,1.8159 2.832,4.1692 2.832,7.0599 0,2.8537 -0.963,5.207 -2.887,7.06 -1.888,1.816 -4.257,2.724 -7.107,2.724 -2.85,0 -5.237,-0.908 -7.162,-2.724 -1.888,-1.853 -2.832,-4.2063 -2.832,-7.06 z m 2.166,76.4922 V 71.1313 h 15.878 v 55.6457 z"
       fill="#1c1e26"
       id="path26" />
    <path
       d="M 819.479,126.777 V 71.1313 h 15.713 v 4.3916 c 4.145,-4.1507 9.327,-6.2261 15.545,-6.2261 2.628,0 5.145,0.4447 7.551,1.3342 2.443,0.8894 4.627,2.168 6.551,3.8357 1.925,1.6677 3.443,3.8172 4.553,6.4485 1.148,2.6313 1.721,5.5405 1.721,8.7277 V 126.777 H 855.179 V 93.6454 c 0,-2.9648 -0.888,-5.3366 -2.665,-7.1155 -1.74,-1.7789 -3.961,-2.6684 -6.663,-2.6684 -4.071,0 -7.55,1.9272 -10.437,5.7814 v 37.1341 z"
       fill="#1c1e26"
       id="path28" />
    <path
       d="m 880.219,98.5374 c 0,-5.7073 1.258,-10.8031 3.775,-15.2874 2.554,-4.4843 5.996,-7.9309 10.327,-10.3398 4.33,-2.4089 9.142,-3.6134 14.435,-3.6134 8.624,0 15.379,2.7239 20.265,8.1718 4.923,5.4108 7.384,12.5079 7.384,21.2912 0,1.9272 -0.074,3.4832 -0.222,4.6692 h -39.364 c 0.148,3.632 1.647,6.523 4.497,8.672 2.85,2.113 6.126,3.169 9.827,3.169 7.181,0 14.232,-2.279 21.154,-6.837 v 13.786 c -3.036,1.927 -6.33,3.447 -9.883,4.558 -3.553,1.149 -7.865,1.724 -12.936,1.724 -5.441,0 -10.346,-1.131 -14.713,-3.391 -4.368,-2.298 -7.884,-5.745 -10.549,-10.34 -2.665,-4.596 -3.997,-10.006 -3.997,-16.2326 z m 16.989,-5.7814 h 23.152 c -0.185,-2.8537 -1.277,-5.2811 -3.276,-7.2824 -1.962,-2.0012 -4.738,-3.0018 -8.328,-3.0018 -3.294,0 -5.996,1.0376 -8.106,3.113 -2.11,2.0754 -3.257,4.4658 -3.442,7.1712 z"
       fill="#1c1e26"
       id="path30" />
    <path
       d="M 946.288,126.777 V 44.2255 h 15.879 v 82.5515 z"
       fill="#1c1e26"
       id="path32" />
  </g>
  <defs
     id="defs54">
    <rect
       x="275.57309"
       y="193.50352"
       width="764.18988"
       height="178.81773"
       id="rect341" />
    <linearGradient
       id="paint0_linear"
       x1="169.78"
       y1="159.992"
       x2="232.561"
       y2="8.9465799"
       gradientUnits="userSpaceOnUse">
      <stop
         stop-color="#66B3B3"
         id="stop34" />
      <stop
         offset="1"
         stop-color="#95CACA"
         id="stop36" />
    </linearGradient>
    <linearGradient
       id="paint1_linear"
       x1="95.546997"
       y1="159.995"
       x2="158.328"
       y2="8.9493704"
       gradientUnits="userSpaceOnUse">
      <stop
         stop-color="#66B3B3"
         id="stop39" />
      <stop
         offset="1"
         stop-color="#95CACA"
         id="stop41" />
    </linearGradient>
    <linearGradient
       id="paint2_linear"
       x1="52.697201"
       y1="105.259"
       x2="14.1123"
       y2="154.478"
       gradientUnits="userSpaceOnUse">
      <stop
         stop-color="#0CA4A5"
         id="stop44" />
      <stop
         offset="1"
         stop-color="#097677"
         id="stop46" />
    </linearGradient>
    <linearGradient
       id="paint3_linear"
       x1="53.576698"
       y1="63.842701"
       x2="92.161697"
       y2="14.6241"
       gradientUnits="userSpaceOnUse">
      <stop
         stop-color="#0CA4A5"
         id="stop49" />
      <stop
         offset="1"
         stop-color="#097677"
         id="stop51" />
    </linearGradient>
  </defs>
  <text
     xml:space="preserve"
     id="text339"
     style="font-size:12px;font-family:Trattatello;-inkscape-font-specification:'Trattatello, Normal';white-space:pre;shape-inside:url(#rect341);fill:#ff0000;stroke:none;stroke-width:24"
     transform="translate(-9.0256681,-176.23959)"
     inkscape:label="Name (YoungSerif)"><tspan
       x="275.57227"
       y="292.17088"
       id="tspan1281"><tspan
         style="font-size:106.667px;font-family:YoungSerif;-inkscape-font-specification:'YoungSerif, Normal';fill:#1c1e26"
         id="tspan1279">Matt Fantinel</tspan></tspan></text>
</svg>
