<svg width="600" height="600" viewBox="0 0 600 600" fill="none" xmlns="http://www.w3.org/2000/svg">
<path d="M348.557 457.128C375.743 468.427 406.31 468.479 433.534 457.272C460.759 446.065 482.41 424.517 493.725 397.368L599.904 142.605C572.718 131.306 542.151 131.254 514.927 142.461C487.703 153.668 466.052 175.216 454.737 202.365L348.557 457.128Z" fill="url(#paint0_linear)"/>
<path d="M172.972 457.134C200.158 468.434 230.725 468.486 257.949 457.279C285.174 446.072 306.825 424.524 318.14 397.375L424.319 142.612C397.133 131.312 366.566 131.26 339.342 142.467C312.118 153.674 290.467 175.222 279.152 202.371L172.972 457.134V457.134Z" fill="url(#paint1_linear)"/>
<path d="M19.943 408.994C25.83 394.881 30.6431 380.385 35.2837 365.85C37.5644 358.462 41.3393 351.62 46.3747 345.748C51.4101 339.876 57.5988 335.099 64.5578 331.711C71.5168 328.324 79.0979 326.4 86.8318 326.057C94.5657 325.714 102.288 326.959 109.52 329.717C116.752 332.475 123.341 336.685 128.878 342.089C134.415 347.492 138.782 353.972 141.71 361.129C144.637 368.286 146.063 375.967 145.898 383.696C145.733 391.425 143.981 399.039 140.751 406.064C138.587 410.956 135.747 415.52 132.314 419.623C117.591 439.692 96.5383 454.234 72.5398 460.909C48.5413 467.585 22.9919 466.007 0.000104944 456.428L19.943 408.994Z" fill="url(#paint2_linear)"/>
<path d="M227.878 190.982C221.991 205.096 217.178 219.592 212.537 234.127C210.257 241.515 206.482 248.356 201.446 254.228C196.411 260.101 190.222 264.878 183.263 268.265C176.304 271.652 168.723 273.577 160.989 273.92C153.255 274.263 145.533 273.017 138.301 270.26C131.069 267.502 124.48 263.291 118.943 257.888C113.407 252.485 109.039 246.004 106.112 238.847C103.184 231.69 101.758 224.01 101.923 216.28C102.088 208.551 103.84 200.938 107.07 193.912C109.234 189.021 112.074 184.457 115.508 180.354C130.23 160.285 151.283 145.743 175.281 139.067C199.28 132.392 224.829 133.97 247.821 143.548L227.878 190.982Z" fill="url(#paint3_linear)"/>
<defs>
<linearGradient id="paint0_linear" x1="399.809" y1="478.43" x2="548.307" y2="121.159" gradientUnits="userSpaceOnUse">
<stop stop-color="#66B3B3"/>
<stop offset="1" stop-color="#95CACA"/>
</linearGradient>
<linearGradient id="paint1_linear" x1="224.224" y1="478.437" x2="372.722" y2="121.166" gradientUnits="userSpaceOnUse">
<stop stop-color="#66B3B3"/>
<stop offset="1" stop-color="#95CACA"/>
</linearGradient>
<linearGradient id="paint2_linear" x1="122.871" y1="348.97" x2="31.6047" y2="465.388" gradientUnits="userSpaceOnUse">
<stop stop-color="#0CA4A5"/>
<stop offset="1" stop-color="#097677"/>
</linearGradient>
<linearGradient id="paint3_linear" x1="124.951" y1="251.006" x2="216.216" y2="134.589" gradientUnits="userSpaceOnUse">
<stop stop-color="#0CA4A5"/>
<stop offset="1" stop-color="#097677"/>
</linearGradient>
</defs>
</svg>
