<svg width="30" height="30" viewBox="0 0 30 30" fill="none" xmlns="http://www.w3.org/2000/svg">
<path d="M27.1428 7.48799H18.1529L16.8443 6.17944C13.8585 3.1923 8.99853 3.1923 6.01286 6.17944L2.87283 9.32087C1.02 11.1737 0 13.6366 0 16.2552C0 21.6623 4.39855 26.0609 9.80571 26.0609H18.5714C20.1471 26.0609 21.4286 24.7794 21.4286 23.2023C21.4286 22.6152 21.25 22.068 20.9443 21.6137C22.0572 21.2223 22.8571 20.1609 22.8571 18.9166C22.8571 18.3294 22.6785 17.7823 22.3728 17.328C23.4857 16.9366 24.2857 15.8751 24.2857 14.6309C24.2857 14.1109 24.1456 13.6223 23.9014 13.2023H27.1428C28.7185 13.2023 29.9999 11.9209 29.9999 10.3452C29.9999 8.76942 28.7186 7.48799 27.1428 7.48799ZM27.1428 11.7752H17.8572C17.4629 11.7752 17.1429 12.0952 17.1429 12.4895C17.1429 12.8838 17.4629 13.2038 17.8572 13.2038H21.4286C22.2171 13.2038 22.8571 13.8452 22.8571 14.6323C22.8571 15.4195 22.2171 16.0609 21.4286 16.0609H19.2857C18.8914 16.0609 18.5714 16.3809 18.5714 16.7752C18.5714 17.1695 18.8914 17.4895 19.2857 17.4895H20C20.7886 17.4895 21.4286 18.131 21.4286 18.9181C21.4286 19.7052 20.7886 20.3466 20 20.3466H18.5715C18.1772 20.3466 17.8572 20.6666 17.8572 21.0609C17.8572 21.4552 18.1772 21.7752 18.5715 21.7752C19.36 21.7752 20 22.4167 20 23.2038C20 23.9909 19.36 24.6323 18.5715 24.6323H9.80571C5.18712 24.6323 1.42855 20.8738 1.42855 16.2552C1.42855 14.018 2.29996 11.9151 3.88286 10.3323L7.02288 7.19087C8.23862 5.97661 9.8329 5.36944 11.4286 5.36944C13.0243 5.36944 14.6186 5.97661 15.8343 7.19087L16.1329 7.48947H12.1429C11.7486 7.48947 11.4286 7.80949 11.4286 8.20377C11.4286 8.59806 11.7486 8.91808 12.1429 8.91808H27.1429C27.9315 8.91808 28.5714 9.55953 28.5714 10.3466C28.5714 11.1337 27.9314 11.7752 27.1428 11.7752Z"/>
</svg>
