<svg width="40" height="40" viewBox="0 0 40 40" fill="none" xmlns="http://www.w3.org/2000/svg">
<g clip-path="url(#clip0)">
<path d="M31.8035 36.5012C32.1292 36.5012 32.3931 36.2371 32.3931 35.9115V34.8107C32.3931 31.8765 30.4481 29.3104 27.643 28.5099C27.8582 27.874 27.9823 27.2648 27.9823 26.7041V23.1314C29.3229 22.9353 30.3556 21.7783 30.3556 20.3842C30.3556 19.6643 30.0803 19.0077 29.6295 18.5138H30.6182C31.1101 18.5138 31.5412 18.2176 31.7167 17.759C31.8932 17.2975 31.7689 16.7856 31.3999 16.455C30.8161 15.9318 29.9326 15.4673 28.7741 15.0746C26.3812 14.2633 24.495 12.4216 23.5949 10.0194L21.1842 0.777529C21.1792 0.758501 21.1733 0.73971 21.1664 0.721233C21.0039 0.283131 20.597 0 20.1297 0C19.6624 0 19.2554 0.283131 19.0928 0.721233C19.0859 0.73971 19.08 0.758501 19.0751 0.777529L17.2061 7.94323C17.1239 8.25836 17.3127 8.58049 17.6279 8.66266C17.943 8.74482 18.2651 8.55604 18.3473 8.24091L20.1297 1.4074L22.4611 10.3461C22.466 10.3651 22.4719 10.3839 22.4788 10.4024C23.4989 13.1527 25.6553 15.2626 28.3953 16.1916C29.3879 16.5281 30.1547 16.9229 30.6127 17.3333C30.6131 17.3337 30.6135 17.3341 30.6139 17.3345L9.64588 17.3341C9.64611 17.3339 9.64643 17.3336 9.64674 17.3334C10.1047 16.923 10.8714 16.5281 11.8641 16.1917C14.604 15.2627 16.7604 13.1527 17.7806 10.4025C17.8939 10.0971 17.7381 9.75775 17.4327 9.64453C17.1271 9.53139 16.7881 9.68707 16.6747 9.99229C15.7787 12.4079 13.8873 14.2604 11.4853 15.0747C10.3269 15.4675 9.44334 15.9319 8.85962 16.4552C8.49063 16.7859 8.36624 17.2977 8.54276 17.7592C8.71825 18.2177 9.14936 18.514 9.64132 18.514H10.3928C9.93907 19.0116 9.66388 19.6713 9.66388 20.3843C9.66388 21.686 10.5807 22.8121 11.8308 23.0934V23.7709C11.8308 23.8242 11.8379 23.8758 11.8512 23.925V24.3548C11.8512 24.6805 12.1151 24.9445 12.4409 24.9445C12.7666 24.9445 13.0306 24.6805 13.0306 24.3548V23.7708C13.0306 23.7175 13.0235 23.6658 13.0102 23.6166V18.5139H13.9814V20.4629C13.9814 21.9057 14.7496 23.2318 15.9723 23.9574C15.9069 24.0808 15.8431 24.2036 15.7814 24.3228C15.5642 24.7424 15.2395 25.37 15.0593 25.4988C14.7891 25.5364 14.5772 25.7566 14.5537 26.0327C14.5288 26.3253 14.7229 26.5917 15.0091 26.6575C15.0442 26.6656 15.4318 26.7513 16.0038 26.7513C16.7294 26.7513 17.7521 26.6133 18.7288 26.0035C18.7937 25.9629 18.857 25.9238 18.9184 25.8858C19.2744 25.6654 19.602 25.4627 19.8766 25.2155C20.1636 25.4476 20.5024 25.6326 20.8704 25.8336C20.9398 25.8716 21.0113 25.9106 21.0848 25.9513C22.8869 26.9474 24.7555 26.4292 24.8341 26.4066C25.1164 26.3257 25.2962 26.0494 25.2557 25.7585C25.2175 25.484 24.9942 25.2755 24.7224 25.2522C24.5355 25.1332 24.1779 24.5237 23.9389 24.1162C23.9031 24.0552 23.8667 23.9932 23.8299 23.9309C25.0369 23.195 25.7768 21.8888 25.7768 20.4629V18.5139H26.7604L26.8027 26.7042C26.8027 29.6883 22.1658 35.002 19.9164 37.2798C17.667 35.0026 13.0303 29.6902 13.0303 26.7042C13.0303 26.3785 12.7664 26.1145 12.4406 26.1145C12.1149 26.1145 11.8509 26.3785 11.8509 26.7042V26.7135V26.7197C11.8533 27.2891 11.983 27.9082 12.2056 28.5542C9.48273 29.4024 7.60672 31.9318 7.60672 34.8108V38.1258C7.60672 39.1593 8.44746 40.0001 9.481 40.0001H30.5187C31.4412 40.0001 32.2103 39.3302 32.3647 38.4512C32.383 38.3942 32.3929 38.3334 32.3929 38.2703V38.1258C32.3929 37.8001 32.129 37.5361 31.8032 37.5361C31.4775 37.5361 31.2135 37.8001 31.2135 38.1258C31.2135 38.5089 30.9018 38.8207 30.5186 38.8207H9.48116C9.09801 38.8207 8.78626 38.5089 8.78626 38.1258V34.8107C8.78626 32.4147 10.3706 30.3147 12.6567 29.6506C14.5718 33.6987 19.2571 38.292 19.5054 38.5337C19.6198 38.6451 19.7683 38.7009 19.9167 38.7009C20.0651 38.7009 20.2136 38.6451 20.328 38.5337C20.5771 38.2911 25.2939 33.6673 27.1964 29.6092C29.5622 30.2245 31.2137 32.3615 31.2137 34.8106V35.9113C31.2138 36.2371 31.4777 36.5012 31.8035 36.5012ZM11.8307 21.8597C11.2478 21.6174 10.8432 21.04 10.8432 20.3842C10.8432 19.728 11.2476 19.1507 11.8307 18.9085V21.8597ZM21.6555 24.919C21.5802 24.8774 21.507 24.8374 21.436 24.7985C20.8956 24.5033 20.5386 24.3083 20.3563 24.0105C20.2466 23.831 20.0476 23.7239 19.8391 23.7289C19.6288 23.7339 19.4372 23.8507 19.3362 24.0352C19.1663 24.3455 18.8209 24.5593 18.2982 24.8827C18.2353 24.9216 18.1709 24.9615 18.1045 25.0029C17.5471 25.3509 16.9592 25.4958 16.4645 25.5468C16.5859 25.3346 16.7054 25.1037 16.829 24.8646C17.1204 24.3014 17.4217 23.719 17.763 23.3372C18.1862 22.8639 18.5879 22.6752 18.9024 22.6752C19.0747 22.6752 19.2211 22.7319 19.3301 22.8295C19.344 22.8419 19.3594 22.8576 19.3786 22.8791C19.4933 23.0075 19.6585 23.0794 19.8305 23.076C20.0026 23.0725 20.1647 22.9939 20.274 22.8609C20.2905 22.8409 20.3041 22.8256 20.3163 22.8135C20.4546 22.6759 20.6474 22.6167 20.8735 22.6421C21.1009 22.6678 21.465 22.7918 21.908 23.2373C22.2692 23.6005 22.601 24.166 22.922 24.713C23.0589 24.9466 23.1913 25.1719 23.3245 25.3784C22.8295 25.3539 22.2355 25.2395 21.6555 24.919ZM24.5975 20.4628C24.5975 21.4838 24.0622 22.4177 23.1917 22.9375C23.0507 22.7454 22.9021 22.5645 22.7441 22.4058C22.2022 21.8608 21.6009 21.5372 21.0052 21.4701C20.5714 21.4212 20.1507 21.5136 19.8028 21.727C19.0507 21.3068 17.9189 21.3929 16.8834 22.5512C16.7757 22.6716 16.6735 22.8036 16.5758 22.9423C15.7074 22.4275 15.1606 21.4873 15.1606 20.4628V18.5138H24.5973V20.4628H24.5975ZM29.1762 20.3842C29.1762 21.1343 28.6558 21.7636 27.9576 21.9344L27.9416 18.8298C28.6479 18.9948 29.1762 19.6283 29.1762 20.3842Z"/>
<path d="M17.6019 21.1233C17.9277 21.1233 18.1916 20.8592 18.1916 20.5336V20.0225C18.1916 19.6968 17.9277 19.4328 17.6019 19.4328C17.2762 19.4328 17.0122 19.6968 17.0122 20.0225V20.5336C17.0122 20.8592 17.2762 21.1233 17.6019 21.1233Z"/>
<path d="M22.079 21.1233C22.4047 21.1233 22.6687 20.8592 22.6687 20.5336V20.0225C22.6687 19.6968 22.4047 19.4328 22.079 19.4328C21.7533 19.4328 21.4893 19.6968 21.4893 20.0225V20.5336C21.4893 20.8592 21.7533 21.1233 22.079 21.1233Z"/>
</g>
<defs>
<clipPath id="clip0">
<rect width="40" height="40" fill="white"/>
</clipPath>
</defs>
</svg>
