<svg width="40" height="40" viewBox="0 0 40 40" fill="none" xmlns="http://www.w3.org/2000/svg">
<g clip-path="url(#clip0)">
<path d="M39.4165 19.4155H37.5326C34.9711 18.2314 33.4378 15.9262 32.976 12.5604C32.672 10.3446 32.9519 8.35475 33.0483 7.7792L34.1431 6.68436C34.3713 6.45616 34.3713 6.08608 34.1431 5.85788C33.9148 5.62968 33.5448 5.62968 33.3166 5.85788L32.1949 6.97952C27.0253 8.57131 21.5875 3.65554 20.5854 2.69039V0.584452C20.5854 0.26164 20.3238 0 20.001 0C19.6782 0 19.4165 0.26164 19.4165 0.584452V2.72429C18.5581 3.74765 17.5076 4.63648 16.2905 5.36749C16.0138 5.53366 15.9242 5.89265 16.0903 6.16936C16.2566 6.446 16.6158 6.53561 16.8922 6.36944C17.8257 5.80874 18.6696 5.16077 19.4164 4.43609V10.0033C19.2185 10.2547 16.8543 13.152 13.5376 12.7101L9.5902 8.76272C10.4707 8.66225 11.7222 8.45475 13.1246 8.0253C13.4333 7.93077 13.6068 7.60405 13.5124 7.29538C13.4179 6.98671 13.0911 6.81319 12.7825 6.90764C10.7986 7.51506 9.10981 7.64991 8.50708 7.67959L6.68545 5.85788C6.45716 5.62968 6.08717 5.62968 5.85889 5.85788C5.63068 6.08608 5.63068 6.45616 5.85889 6.68436L7.70122 8.5267C7.92966 13.9829 3.01897 18.6347 2.14702 19.4155H0.585459C0.262647 19.4155 0.00100708 19.6772 0.00100708 20C0.00100708 20.3227 0.262647 20.5844 0.585459 20.5844H2.21022C4.75498 22.6478 6.34943 25.2109 6.94974 28.2067C7.3288 30.0987 7.1731 31.5906 7.10388 32.0706L5.85881 33.3156C5.6306 33.5438 5.6306 33.9138 5.85881 34.142C5.97295 34.2562 6.12256 34.3132 6.27209 34.3132C6.42162 34.3132 6.57123 34.2561 6.68537 34.142L7.89372 32.9338C7.90732 32.9338 7.92115 32.9335 7.93474 32.9335C12.3912 32.9335 15.2765 34.2952 16.922 35.451C18.4237 36.5059 19.1915 37.5824 19.4165 37.9309V39.4156C19.4165 39.7383 19.6782 40 20.001 40C20.3238 40 20.5854 39.7384 20.5854 39.4156V37.9777C24.2149 33.6627 31.0009 33.2167 32.3455 33.171L33.3166 34.1421C33.4307 34.2563 33.5803 34.3133 33.7298 34.3133C33.8794 34.3133 34.029 34.2562 34.1431 34.1421C34.3713 33.9139 34.3713 33.5438 34.1431 33.3156L33.1051 32.2776C32.6967 30.7871 32.821 29.0918 33.4784 27.235C33.5861 26.9308 33.4268 26.5968 33.1225 26.4891C32.8185 26.3814 32.4843 26.5406 32.3765 26.8449C31.8723 28.2689 31.6506 29.6199 31.7103 30.8828L27.5026 26.6751C27.6546 25.1073 28.2755 21.8061 29.7549 20.5844H36.1019C35.5855 21.2028 34.9051 22.0801 34.2311 23.1355C34.0573 23.4075 34.137 23.7689 34.4091 23.9426C34.5066 24.0049 34.6155 24.0346 34.7231 24.0346C34.9159 24.0346 35.1047 23.9393 35.2162 23.7646C36.2214 22.1907 37.2622 21.0114 37.6559 20.5844H39.4164C39.7392 20.5844 40.0008 20.3228 40.0008 20C40.0008 19.6772 39.7393 19.4155 39.4165 19.4155ZM19.4165 11.7049V18.589L14.7349 13.9074C16.8289 13.7466 18.4602 12.5879 19.4165 11.7049ZM19.4165 21.4109V27.9726C18.031 26.6792 16.0013 26.2897 14.645 26.1824L19.4165 21.4109ZM13.8354 25.339C13.5947 23.1737 12.3563 21.56 11.3542 20.5844H18.59L13.8354 25.339ZM13.6068 14.4323L18.59 19.4155H11.1036C12.575 17.677 13.2871 15.6514 13.6068 14.4323ZM5.9674 16.8775C7.68662 14.4829 8.66654 12.0201 8.84708 9.67256L12.6312 13.4567C12.4454 14.3781 11.6942 17.3775 9.49044 19.4156H3.83498C4.43022 18.8061 5.20295 17.9422 5.9674 16.8775ZM8.10669 28.0319C7.70794 25.9989 6.65857 23.1653 3.97405 20.5844H9.53481C10.1732 21.0387 12.9098 23.1877 12.6957 26.4788L8.36443 30.81C8.37255 30.0653 8.31849 29.1116 8.10669 28.0319ZM19.4165 36.0639C18.9794 35.5999 18.3996 35.0675 17.6563 34.5386C16.0068 33.3652 13.2197 31.9998 9.03513 31.7924L13.5111 27.3164C14.455 27.2995 18.278 27.3935 19.4165 29.9396V36.0639ZM20.5853 4.27155C21.2997 4.88655 22.3578 5.71546 23.6473 6.47788C26.1245 7.94264 28.5389 8.60334 30.7388 8.43561L26.6545 12.5198C25.9648 12.727 22.5602 13.5507 20.5853 10.3577V4.27155ZM25.2535 13.921L20.5854 18.589V12.2312C21.7894 13.4176 23.1877 13.8085 24.2778 13.9037C24.6217 13.9338 24.9492 13.9354 25.2535 13.921ZM20.5854 28.4539V21.4109L25.1506 25.9761C24.3439 26.0717 23.3506 26.4326 22.144 27.244C21.5477 27.645 21.012 28.0792 20.5854 28.4539ZM31.2414 32.0668C30.3622 32.1441 29.1223 32.3064 27.7302 32.6485C24.7997 33.3687 22.3609 34.6127 20.5854 36.2809V30.0528C21.8006 28.811 24.804 26.3292 26.534 27.3594L31.2414 32.0668ZM26.8918 23.5842C26.6859 24.3398 26.5499 25.0614 26.4616 25.634L21.412 20.5844H28.1946C27.6681 21.3337 27.2321 22.3346 26.8918 23.5842ZM21.4119 19.4155L26.2325 14.5949C26.3761 16.7423 27.8189 18.4723 28.8048 19.4155H21.4119ZM30.5592 19.4155C30.5191 19.3492 30.4658 19.2904 30.4009 19.2436C30.3637 19.2168 26.7485 16.5644 27.4957 13.3316L31.7161 9.11131C31.6472 10.064 31.6299 11.3261 31.8135 12.6862C32.2102 15.6258 33.4052 17.9138 35.3062 19.4155H30.5592Z"/>
</g>
<defs>
<clipPath id="clip0">
<rect width="40" height="40" fill="white"/>
</clipPath>
</defs>
</svg>
