<?xml version="1.0" standalone="no"?>
<!DOCTYPE svg PUBLIC "-//W3C//DTD SVG 20010904//EN"
 "http://www.w3.org/TR/2001/REC-SVG-20010904/DTD/svg10.dtd">
<svg version="1.0" xmlns="http://www.w3.org/2000/svg"
 width="700.000000pt" height="700.000000pt" viewBox="0 0 700.000000 700.000000"
 preserveAspectRatio="xMidYMid meet">
<metadata>
Created by potrace 1.14, written by Peter Selinger 2001-2017
</metadata>
<g transform="translate(0.000000,700.000000) scale(0.100000,-0.100000)"
fill="#000000" stroke="none">
<path d="M4350 5432 c-78 -6 -252 -44 -326 -71 -235 -85 -415 -210 -574 -402
-105 -126 -150 -214 -308 -594 -95 -228 -543 -1302 -565 -1355 -6 -14 -11 -28
-11 -31 -1 -3 -12 -30 -25 -60 -49 -111 -61 -139 -61 -144 0 -3 -9 -24 -19
-48 -11 -23 -81 -190 -156 -372 -76 -181 -143 -343 -151 -360 -40 -91 -135
-327 -132 -330 2 -2 37 -15 78 -29 318 -106 663 -86 964 54 240 112 459 318
590 555 15 27 91 200 168 385 77 184 146 349 153 365 8 17 39 93 70 169 31 76
60 146 65 155 5 9 41 95 80 191 40 96 78 189 86 205 7 17 81 194 163 395 83
201 157 379 165 395 8 17 24 55 35 85 12 30 26 64 32 75 28 61 278 669 275
672 -6 6 -143 52 -170 57 -14 3 -34 7 -44 10 -73 22 -273 37 -382 28z"/>
<path d="M6428 5434 c-2 -1 -35 -5 -75 -8 -39 -3 -78 -8 -85 -11 -7 -2 -24 -6
-38 -9 -14 -2 -45 -10 -70 -17 -25 -7 -49 -13 -55 -15 -5 -1 -41 -14 -80 -30
-210 -84 -372 -202 -521 -379 -67 -79 -103 -133 -152 -230 -42 -82 -52 -106
-281 -660 -73 -176 -139 -333 -146 -350 -16 -35 -282 -673 -330 -790 -43 -104
-183 -440 -201 -482 -8 -18 -20 -48 -28 -65 -8 -18 -28 -67 -44 -108 -17 -41
-50 -122 -75 -180 -106 -250 -179 -431 -176 -434 27 -20 220 -72 321 -86 77
-12 227 -14 318 -5 149 15 353 82 497 164 211 121 406 325 511 537 17 33 88
197 157 365 70 167 133 318 140 334 8 17 80 190 161 385 80 195 157 379 170
408 13 29 24 55 24 58 0 3 7 21 15 40 26 58 40 93 130 309 48 116 93 224 100
240 8 17 70 167 140 335 70 168 148 357 175 420 27 63 53 127 59 142 l10 27
-93 30 c-52 17 -107 33 -122 36 -16 2 -55 10 -87 16 -52 9 -263 20 -269 13z"/>
<path d="M2295 5422 c-142 -10 -328 -61 -464 -126 -304 -145 -567 -435 -627
-691 -37 -159 1 -364 94 -503 255 -380 800 -399 1074 -37 61 81 76 112 141
305 87 257 199 544 304 779 20 43 73 173 73 177 0 8 -181 61 -270 79 -70 14
-245 23 -325 17z"/>
<path d="M932 3188 c-129 -19 -277 -101 -374 -206 -73 -80 -109 -143 -153
-277 -104 -308 -123 -359 -289 -754 -64 -151 -115 -276 -113 -277 9 -7 165
-57 217 -69 143 -32 370 -37 500 -11 14 3 88 18 100 21 90 21 238 83 338 142
278 163 506 453 538 681 12 89 2 209 -24 297 -28 94 -111 225 -182 288 -41 37
-156 109 -200 126 -112 41 -246 56 -358 39z"/>
</g>
</svg>
