<?xml version="1.0" encoding="UTF-8" standalone="no"?>
<svg
   xmlns:dc="http://purl.org/dc/elements/1.1/"
   xmlns:cc="http://creativecommons.org/ns#"
   xmlns:rdf="http://www.w3.org/1999/02/22-rdf-syntax-ns#"
   xmlns:svg="http://www.w3.org/2000/svg"
   xmlns="http://www.w3.org/2000/svg"
   xmlns:sodipodi="http://sodipodi.sourceforge.net/DTD/sodipodi-0.dtd"
   xmlns:inkscape="http://www.inkscape.org/namespaces/inkscape"
   width="126.86997mm"
   height="15.08188mm"
   viewBox="0 0 126.86998 15.08188"
   version="1.1"
   id="svg8"
   inkscape:version="1.0.1 (3bc2e813f5, 2020-09-07)"
   sodipodi:docname="Logotype.svg"
   inkscape:export-filename="/home/matfantinel/Pictures/Matt_Fantinel logo/Logotype_light.png"
   inkscape:export-xdpi="120.17"
   inkscape:export-ydpi="120.17">
  <defs
     id="defs2" />
  <sodipodi:namedview
     id="base"
     pagecolor="#ffffff"
     bordercolor="#666666"
     borderopacity="1.0"
     inkscape:pageopacity="0.0"
     inkscape:pageshadow="2"
     inkscape:zoom="3.959798"
     inkscape:cx="184.52511"
     inkscape:cy="57.190399"
     inkscape:document-units="mm"
     inkscape:current-layer="name"
     inkscape:document-rotation="0"
     showgrid="false"
     inkscape:window-width="1820"
     inkscape:window-height="900"
     inkscape:window-x="2354"
     inkscape:window-y="117"
     inkscape:window-maximized="0" />
  <metadata
     id="metadata5">
    <rdf:RDF>
      <cc:Work
         rdf:about="">
        <dc:format>image/svg+xml</dc:format>
        <dc:type
           rdf:resource="http://purl.org/dc/dcmitype/StillImage" />
        <dc:title />
      </cc:Work>
    </rdf:RDF>
  </metadata>
  <g
     inkscape:label="Layer 1"
     inkscape:groupmode="layer"
     id="name"
     transform="translate(2.8287658,-210.21052)">
    <path
       id="path935-6-1-43-2-9-8"
       class="st5"
       d="m 14.357895,224.56448 h 1.74625 v -10.21291 l 5.000625,8.1227 h 0.185208 l 5.027082,-8.1227 v 10.21291 h 1.74625 v -13.335 h -1.799167 l -5.079998,8.20209 -5.027084,-8.20209 h -1.825625 v 13.335 z"
       style="fill-opacity:1;stroke-width:0.87376;stroke-miterlimit:11.3386;stroke-opacity:1" />
    <path
       id="path937-5-5-0-8-1-3"
       class="st5"
       d="m 34.25456,224.85552 c 1.164167,0 2.090208,-0.5027 2.645833,-1.03187 v 0.74083 h 1.666875 v -6.08541 c 0,-1.79917 -1.084791,-3.36021 -3.81,-3.36021 -1.375833,0 -2.487083,0.34396 -3.4925,0.84666 v 1.74626 c 0.846667,-0.52917 2.143125,-1.05834 3.4925,-1.05834 1.402292,0 2.090209,0.74084 2.090209,1.64042 v 0.97896 c -0.582084,-0.3175 -1.561042,-0.58208 -2.592917,-0.58208 -1.878542,0 -3.518958,1.08478 -3.518958,2.96333 0,2.03729 1.455208,3.20145 3.518958,3.20145 z m 0.3175,-1.4552 c -1.164167,0 -2.037292,-0.66146 -2.037292,-1.74625 0,-0.97896 0.873125,-1.53459 2.037292,-1.53459 1.058333,0 1.931458,0.42334 2.275417,0.68792 v 1.66687 c -0.343959,0.34396 -1.190625,0.92605 -2.275417,0.92605 z"
       style="fill-opacity:1;stroke-width:0.87376;stroke-miterlimit:11.3386;stroke-opacity:1" />
    <path
       id="path939-9-7-0-4-9-8"
       sodipodi:nodetypes="sccssccccccccccss"
       class="st5"
       d="m 44.317167,224.85028 c 0.608542,0 1.217083,-0.13229 1.375833,-0.18521 v -1.48167 c -0.211666,0.0794 -0.555625,0.13229 -0.846666,0.13229 -0.926042,0 -1.375834,-0.42333 -1.375834,-1.27 v -5.10645 h 2.301875 v -1.53459 h -2.275416 v -3.65125 l -1.5875,0.9525 v 2.69875 h -1.825625 v 1.53459 h 1.666875 v 5.37104 c 0,1.66687 1.005416,2.54 2.566458,2.54 z"
       style="fill-opacity:1;stroke-width:0.87376;stroke-miterlimit:11.3386;stroke-opacity:1" />
    <path
       id="path941-3-7-9-7-6-0"
       style="fill-opacity:1;stroke-width:3.3024;stroke-miterlimit:11.3386;stroke-opacity:1"
       d="M 230.14844 3.8417969 L 230.25 44.939453 C 230.163 47.973507 228.47646 49.501953 225.06836 49.501953 C 223.96836 49.501953 215.18945 49.533203 215.18945 49.533203 L 215.18945 49.53125 C 215.18945 49.53125 207.09023 49.53125 205.99023 49.53125 C 202.49023 49.53125 200.78906 47.930444 200.78906 44.730469 L 200.78906 25.431641 L 209.18945 25.431641 L 209.18945 19.630859 L 200.78906 19.630859 L 200.78906 5.8320312 L 194.78906 9.4316406 L 194.78906 19.630859 L 186.68945 19.630859 L 186.58984 25.431641 L 194.28906 25.431641 L 194.28906 45.730469 C 194.28906 52.03045 198.09023 55.332031 203.99023 55.332031 C 206.29024 55.332031 215.18945 55.330078 215.18945 55.330078 C 215.18945 55.330078 224.77032 55.304688 227.07031 55.304688 C 232.97031 55.304688 236.76953 52.005097 236.76953 45.705078 L 236.76953 44.941406 L 236.77539 32.755859 L 258.23828 32.755859 L 258.23828 26.453125 L 236.77539 26.453125 L 236.77539 10.146484 L 260.51172 10.146484 L 260.51172 3.8417969 L 230.14844 3.8417969 z "
       transform="matrix(0.26458333,0,0,0.26458333,-2.8287658,210.21052)" />
    <path
       id="path945-4-7-5-0-3-9"
       class="st5"
       d="m 71.322685,224.85552 c 1.164167,0 2.090208,-0.5027 2.645833,-1.03187 v 0.74083 h 1.666875 v -6.08541 c 0,-1.79917 -1.084791,-3.36021 -3.81,-3.36021 -1.375833,0 -2.487083,0.34396 -3.4925,0.84666 v 1.74626 c 0.846667,-0.52917 2.143125,-1.05834 3.4925,-1.05834 1.402292,0 2.090209,0.74084 2.090209,1.64042 v 0.97896 c -0.582084,-0.3175 -1.561042,-0.58208 -2.592917,-0.58208 -1.878542,0 -3.518958,1.08478 -3.518958,2.96333 -0.02646,2.03729 1.455208,3.20145 3.518958,3.20145 z m 0.291042,-1.4552 c -1.164167,0 -2.037292,-0.66146 -2.037292,-1.74625 0,-0.97896 0.873125,-1.53459 2.037292,-1.53459 1.058333,0 1.931458,0.42334 2.275416,0.68792 v 1.66687 c -0.3175,0.34396 -1.190625,0.92605 -2.275416,0.92605 z"
       style="fill-opacity:1;stroke-width:0.87376;stroke-miterlimit:11.3386;stroke-opacity:1" />
    <path
       id="path947-5-3-4-6-8-1"
       class="st5"
       d="m 78.281226,224.56448 h 1.71979 v -6.58812 c 0.58209,-0.74083 1.34938,-1.21708 2.32834,-1.21708 1.1377,0 2.14312,0.82021 2.14312,2.2225 v 5.60916 h 1.71979 v -6.05895 c 0,-2.2225 -1.69333,-3.41313 -3.43958,-3.41313 -1.21708,0 -2.14313,0.52916 -2.75167,1.19063 v -0.87313 h -1.66687 z"
       style="fill-opacity:1;stroke-width:0.87376;stroke-miterlimit:11.3386;stroke-opacity:1" />
    <path
       id="path949-2-6-0-2-0-9"
       class="st5"
       d="m 92.118936,224.85552 c 0.60854,0 1.21708,-0.13229 1.37583,-0.1852 v -1.48167 c -0.21166,0.0794 -0.55562,0.13229 -0.84666,0.13229 -0.92605,0 -1.37584,-0.42333 -1.37584,-1.27 v -5.10645 h 2.2225 v -1.53459 h -2.2225 v -3.65125 l -1.5875,0.9525 v 2.69875 h -1.77271 v 1.53459 h 1.66688 v 5.37103 c -0.0265,1.66688 0.97896,2.54 2.54,2.54 z"
       style="fill-opacity:1;stroke-width:0.87376;stroke-miterlimit:11.3386;stroke-opacity:1" />
    <path
       id="path951-5-5-5-9-5-6"
       class="st5"
       d="m 96.722686,213.1874 c 0.71437,0 1.27,-0.55562 1.27,-1.27 0,-0.71437 -0.52917,-1.27 -1.27,-1.27 -0.71438,0 -1.24354,0.55563 -1.24354,1.27 0,0.71438 0.52916,1.27 1.24354,1.27 z m -0.84667,11.37708 h 1.71979 v -9.12812 h -1.71979 z"
       style="fill-opacity:1;stroke-width:0.87376;stroke-miterlimit:11.3386;stroke-opacity:1" />
    <path
       id="path953-4-6-9-9-6-2"
       class="st5"
       d="m 100.63852,224.56448 h 1.71979 v -6.58812 c 0.58209,-0.74083 1.34938,-1.21708 2.32834,-1.21708 1.13771,0 2.14312,0.82021 2.14312,2.2225 v 5.60916 h 1.71979 v -6.05895 c 0,-2.2225 -1.69333,-3.41313 -3.43958,-3.41313 -1.21708,0 -2.14312,0.52916 -2.75167,1.19063 v -0.87313 h -1.66687 v 9.12812 z"
       style="fill-opacity:1;stroke-width:0.87376;stroke-miterlimit:11.3386;stroke-opacity:1" />
    <path
       id="path955-7-3-4-0-6-5"
       class="st5"
       d="m 115.32287,224.85552 c 1.87854,0 3.04271,-0.66145 3.83646,-1.27 v -1.69333 c -1.24354,0.97896 -2.35479,1.40229 -3.83646,1.40229 -1.53458,0 -2.77812,-1.08479 -2.8575,-2.61937 h 7.09083 c 0.0265,-0.10584 0.0265,-0.37042 0.0265,-0.60854 0,-2.88396 -1.64041,-4.92125 -4.47146,-4.92125 -2.4077,0 -4.49791,1.905 -4.49791,4.84187 0.0265,3.20146 2.16958,4.86833 4.70958,4.86833 z m -2.77812,-5.68853 c 0.0794,-1.32292 1.08479,-2.48709 2.59291,-2.48709 1.66688,0 2.56646,1.03188 2.61938,2.48709 z"
       style="fill-opacity:1;stroke-width:0.87376;stroke-miterlimit:11.3386;stroke-opacity:1" />
    <path
       id="path957-4-9-6-8-4-4"
       class="st5"
       d="m 121.88454,224.56448 h 1.71979 v -13.81125 h -1.71979 z"
       style="fill-opacity:1;stroke-width:0.87376;stroke-miterlimit:11.3386;stroke-opacity:1" />
  </g>
  <g
     inkscape:label="Layer 1"
     inkscape:groupmode="layer"
     id="web"
     transform="translate(2.8287658,-210.21052)">
    <path
       id="path80-9-9-1-7"
       style="fill-opacity:1;stroke-width:0.245669;stroke-miterlimit:4;stroke-dasharray:none;stroke-opacity:1"
       d="M 53.023438 1.4902344 C 52.423437 1.4902344 51.92344 1.6901777 51.523438 1.9902344 C 51.123439 2.3902218 50.921875 2.9898437 50.921875 3.5898438 L 50.722656 7.2890625 L 22.421875 18.888672 L 17.623047 14.089844 C 16.623048 13.089856 15.023047 13.089856 14.123047 14.089844 C 13.123044 15.089831 13.123044 16.689863 14.123047 17.589844 L 18.822266 22.289062 L 14.660156 32.708984 C 14.660156 32.809142 10.523437 43.189453 10.523438 43.189453 L 7.4355469 51.089844 L 2.2226562 51.289062 C 1.6226563 51.289062 1.122655 51.489006 0.72265625 51.789062 C 0.32265751 52.18905 0.12304688 52.790228 0.12304688 53.490234 C 0.32305947 54.690234 1.2222681 55.789459 2.3222656 55.689453 L 4.8222656 55.689453 L 26.523438 55.689453 L 27.322266 55.689453 L 28.322266 55.689453 L 30.023438 55.689453 L 54.623047 55.689453 C 54.823059 55.689453 54.923068 55.590014 55.123047 55.490234 C 55.223053 55.390077 55.322266 55.190134 55.322266 54.990234 L 55.322266 32.289062 L 55.023438 2.8886719 C 55.023438 2.7885144 55.021881 2.5901651 54.921875 2.4902344 C 54.521872 1.7902281 53.72344 1.3902281 53.023438 1.4902344 z M 50.322266 12.589844 L 50.623047 26.490234 L 35.023438 31.388672 L 25.421875 21.789062 L 50.322266 12.589844 z M 22.322266 25.689453 L 31.322266 34.689453 L 26.023438 50.589844 L 12.341797 50.888672 L 15.175781 43.664062 L 22.322266 25.689453 z M 50.222656 32.589844 L 50.423828 46.888672 L 39.123047 35.589844 L 50.222656 32.589844 z M 35.523438 39.089844 L 46.523438 49.990234 L 47.023438 50.589844 L 31.722656 50.488281 L 35.523438 39.089844 z "
       transform="matrix(0.26458333,0,0,0.26458333,-2.8287658,210.21052)" />
  </g>
</svg>
