<?xml version="1.0" encoding="UTF-8" standalone="no"?>
<svg
   xmlns:dc="http://purl.org/dc/elements/1.1/"
   xmlns:cc="http://creativecommons.org/ns#"
   xmlns:rdf="http://www.w3.org/1999/02/22-rdf-syntax-ns#"
   xmlns:svg="http://www.w3.org/2000/svg"
   xmlns="http://www.w3.org/2000/svg"
   xmlns:sodipodi="http://sodipodi.sourceforge.net/DTD/sodipodi-0.dtd"
   xmlns:inkscape="http://www.inkscape.org/namespaces/inkscape"
   width="126.86997mm"
   height="15.08188mm"
   viewBox="0 0 126.86998 15.08188"
   version="1.1"
   id="svg8"
   inkscape:version="1.0.1 (3bc2e813f5, 2020-09-07)"
   sodipodi:docname="Logotype_light.svg"
   inkscape:export-filename="/home/matfantinel/Pictures/Matt_Fantinel logo/Logotype_light.png"
   inkscape:export-xdpi="120.17"
   inkscape:export-ydpi="120.17">
  <defs
     id="defs2" />
  <sodipodi:namedview
     id="base"
     pagecolor="#ffffff"
     bordercolor="#666666"
     borderopacity="1.0"
     inkscape:pageopacity="0.0"
     inkscape:pageshadow="2"
     inkscape:zoom="0.7"
     inkscape:cx="310.65214"
     inkscape:cy="-193.69701"
     inkscape:document-units="mm"
     inkscape:current-layer="layer1"
     inkscape:document-rotation="0"
     showgrid="false"
     inkscape:window-width="1280"
     inkscape:window-height="1017"
     inkscape:window-x="1280"
     inkscape:window-y="30"
     inkscape:window-maximized="0" />
  <metadata
     id="metadata5">
    <rdf:RDF>
      <cc:Work
         rdf:about="">
        <dc:format>image/svg+xml</dc:format>
        <dc:type
           rdf:resource="http://purl.org/dc/dcmitype/StillImage" />
        <dc:title></dc:title>
      </cc:Work>
    </rdf:RDF>
  </metadata>
  <g
     inkscape:label="Layer 1"
     inkscape:groupmode="layer"
     id="name"
     transform="translate(2.8287658,-210.21052)">
    <path
       id="path935-6-1-43-2-9-8"
       class="st5"
       d="m 14.357895,224.56448 h 1.74625 v -10.21291 l 5.000625,8.1227 h 0.185208 l 5.027082,-8.1227 v 10.21291 h 1.74625 v -13.335 h -1.799167 l -5.079998,8.20209 -5.027084,-8.20209 h -1.825625 v 13.335 z"
       style="fill-opacity:1;stroke-width:0.87376;stroke-miterlimit:11.3386;stroke-opacity:1" />
    <path
       id="path937-5-5-0-8-1-3"
       class="st5"
       d="m 34.25456,224.85552 c 1.164167,0 2.090208,-0.5027 2.645833,-1.03187 v 0.74083 h 1.666875 v -6.08541 c 0,-1.79917 -1.084791,-3.36021 -3.81,-3.36021 -1.375833,0 -2.487083,0.34396 -3.4925,0.84666 v 1.74626 c 0.846667,-0.52917 2.143125,-1.05834 3.4925,-1.05834 1.402292,0 2.090209,0.74084 2.090209,1.64042 v 0.97896 c -0.582084,-0.3175 -1.561042,-0.58208 -2.592917,-0.58208 -1.878542,0 -3.518958,1.08478 -3.518958,2.96333 0,2.03729 1.455208,3.20145 3.518958,3.20145 z m 0.3175,-1.4552 c -1.164167,0 -2.037292,-0.66146 -2.037292,-1.74625 0,-0.97896 0.873125,-1.53459 2.037292,-1.53459 1.058333,0 1.931458,0.42334 2.275417,0.68792 v 1.66687 c -0.343959,0.34396 -1.190625,0.92605 -2.275417,0.92605 z"
       style="fill-opacity:1;stroke-width:0.87376;stroke-miterlimit:11.3386;stroke-opacity:1" />
    <path
       id="path939-9-7-0-4-9-8"
       sodipodi:nodetypes="sccssccccccccccss"
       class="st5"
       d="m 44.317167,224.85028 c 0.608542,0 1.217083,-0.13229 1.375833,-0.18521 v -1.48167 c -0.211666,0.0794 -0.555625,0.13229 -0.846666,0.13229 -0.926042,0 -1.375834,-0.42333 -1.375834,-1.27 v -5.10645 h 2.301875 v -1.53459 h -2.275416 v -3.65125 l -1.5875,0.9525 v 2.69875 h -1.825625 v 1.53459 h 1.666875 v 5.37104 c 0,1.66687 1.005416,2.54 2.566458,2.54 z"
       style="fill-opacity:1;stroke-width:0.87376;stroke-miterlimit:11.3386;stroke-opacity:1" />
    <path
       id="path941-3-7-9-7-6-0"
       sodipodi:nodetypes="sccssccccccccccss"
       class="st5"
       d="m 51.143417,224.85028 c 0.608542,0 2.963333,-5.3e-4 2.963333,-5.3e-4 l -2.11e-4,-1.534 c 0,0 -2.142914,-9e-5 -2.433955,-9e-5 -0.926042,0 -1.375834,-0.42334 -1.375834,-1.27 v -5.10642 h 2.2225 v -1.53459 h -2.2225 v -3.65125 l -1.5875,0.9525 v 2.69875 h -2.143125 l -0.02646,1.53459 h 2.037292 v 5.37104 c 0,1.66687 1.005416,2.54 2.566458,2.54 z"
       style="fill-opacity:1;stroke-width:0.87376;stroke-miterlimit:11.3386;stroke-opacity:1" />
    <path
       id="path941-3-7-9-6-2-9-4"
       style="fill-opacity:1;stroke-width:0.87376;stroke-miterlimit:11.3386;stroke-opacity:1"
       d="m 58.091455,222.10098 c -0.02302,0.80276 -0.469239,1.20716 -1.370965,1.20716 -0.291042,0 -1.904789,5.3e-4 -1.904789,5.3e-4 v 1.53376 c 0,0 1.825943,5.3e-4 2.434484,5.3e-4 1.561042,0 2.566247,-0.87302 2.566247,-2.5399 v -0.20205 z"
       sodipodi:nodetypes="csccsscc" />
    <path
       id="path943-7-6-2-4-3-0"
       class="st5"
       d="m 59.818046,221.6779 v -2.80053 h 5.67854 v -1.66769 h -5.67854 v -4.3148 h 6.280388 v -1.66769 h -8.033676 l 0.02783,10.43838 z"
       style="opacity:1;fill-opacity:1;stroke-width:0.869172;stroke-miterlimit:11.3386;stroke-opacity:1"
       sodipodi:nodetypes="ccccccccccc" />
    <path
       id="path945-4-7-5-0-3-9"
       class="st5"
       d="m 71.322685,224.85552 c 1.164167,0 2.090208,-0.5027 2.645833,-1.03187 v 0.74083 h 1.666875 v -6.08541 c 0,-1.79917 -1.084791,-3.36021 -3.81,-3.36021 -1.375833,0 -2.487083,0.34396 -3.4925,0.84666 v 1.74626 c 0.846667,-0.52917 2.143125,-1.05834 3.4925,-1.05834 1.402292,0 2.090209,0.74084 2.090209,1.64042 v 0.97896 c -0.582084,-0.3175 -1.561042,-0.58208 -2.592917,-0.58208 -1.878542,0 -3.518958,1.08478 -3.518958,2.96333 -0.02646,2.03729 1.455208,3.20145 3.518958,3.20145 z m 0.291042,-1.4552 c -1.164167,0 -2.037292,-0.66146 -2.037292,-1.74625 0,-0.97896 0.873125,-1.53459 2.037292,-1.53459 1.058333,0 1.931458,0.42334 2.275416,0.68792 v 1.66687 c -0.3175,0.34396 -1.190625,0.92605 -2.275416,0.92605 z"
       style="fill-opacity:1;stroke-width:0.87376;stroke-miterlimit:11.3386;stroke-opacity:1" />
    <path
       id="path947-5-3-4-6-8-1"
       class="st5"
       d="m 78.281226,224.56448 h 1.71979 v -6.58812 c 0.58209,-0.74083 1.34938,-1.21708 2.32834,-1.21708 1.1377,0 2.14312,0.82021 2.14312,2.2225 v 5.60916 h 1.71979 v -6.05895 c 0,-2.2225 -1.69333,-3.41313 -3.43958,-3.41313 -1.21708,0 -2.14313,0.52916 -2.75167,1.19063 v -0.87313 h -1.66687 z"
       style="fill-opacity:1;stroke-width:0.87376;stroke-miterlimit:11.3386;stroke-opacity:1" />
    <path
       id="path949-2-6-0-2-0-9"
       class="st5"
       d="m 92.118936,224.85552 c 0.60854,0 1.21708,-0.13229 1.37583,-0.1852 v -1.48167 c -0.21166,0.0794 -0.55562,0.13229 -0.84666,0.13229 -0.92605,0 -1.37584,-0.42333 -1.37584,-1.27 v -5.10645 h 2.2225 v -1.53459 h -2.2225 v -3.65125 l -1.5875,0.9525 v 2.69875 h -1.77271 v 1.53459 h 1.66688 v 5.37103 c -0.0265,1.66688 0.97896,2.54 2.54,2.54 z"
       style="fill-opacity:1;stroke-width:0.87376;stroke-miterlimit:11.3386;stroke-opacity:1" />
    <path
       id="path951-5-5-5-9-5-6"
       class="st5"
       d="m 96.722686,213.1874 c 0.71437,0 1.27,-0.55562 1.27,-1.27 0,-0.71437 -0.52917,-1.27 -1.27,-1.27 -0.71438,0 -1.24354,0.55563 -1.24354,1.27 0,0.71438 0.52916,1.27 1.24354,1.27 z m -0.84667,11.37708 h 1.71979 v -9.12812 h -1.71979 z"
       style="fill-opacity:1;stroke-width:0.87376;stroke-miterlimit:11.3386;stroke-opacity:1" />
    <path
       id="path953-4-6-9-9-6-2"
       class="st5"
       d="m 100.63852,224.56448 h 1.71979 v -6.58812 c 0.58209,-0.74083 1.34938,-1.21708 2.32834,-1.21708 1.13771,0 2.14312,0.82021 2.14312,2.2225 v 5.60916 h 1.71979 v -6.05895 c 0,-2.2225 -1.69333,-3.41313 -3.43958,-3.41313 -1.21708,0 -2.14312,0.52916 -2.75167,1.19063 v -0.87313 h -1.66687 v 9.12812 z"
       style="fill-opacity:1;stroke-width:0.87376;stroke-miterlimit:11.3386;stroke-opacity:1" />
    <path
       id="path955-7-3-4-0-6-5"
       class="st5"
       d="m 115.32287,224.85552 c 1.87854,0 3.04271,-0.66145 3.83646,-1.27 v -1.69333 c -1.24354,0.97896 -2.35479,1.40229 -3.83646,1.40229 -1.53458,0 -2.77812,-1.08479 -2.8575,-2.61937 h 7.09083 c 0.0265,-0.10584 0.0265,-0.37042 0.0265,-0.60854 0,-2.88396 -1.64041,-4.92125 -4.47146,-4.92125 -2.4077,0 -4.49791,1.905 -4.49791,4.84187 0.0265,3.20146 2.16958,4.86833 4.70958,4.86833 z m -2.77812,-5.68853 c 0.0794,-1.32292 1.08479,-2.48709 2.59291,-2.48709 1.66688,0 2.56646,1.03188 2.61938,2.48709 z"
       style="fill-opacity:1;stroke-width:0.87376;stroke-miterlimit:11.3386;stroke-opacity:1" />
    <path
       id="path957-4-9-6-8-4-4"
       class="st5"
       d="m 121.88454,224.56448 h 1.71979 v -13.81125 h -1.71979 z"
       style="fill-opacity:1;stroke-width:0.87376;stroke-miterlimit:11.3386;stroke-opacity:1" />
  </g>
  <g
    inkscape:label="Layer 1"
    inkscape:groupmode="layer"
    id="web"
    transform="translate(2.8287658,-210.21052)">
    <path
       class="st9"
       d="m 11.729365,210.975 c 0,-0.0265 0,-0.0794 -0.02646,-0.10584 -0.105834,-0.18521 -0.3175,-0.29104 -0.502709,-0.26458 -0.15875,0 -0.291041,0.0529 -0.396875,0.13229 -0.105833,0.10583 -0.15875,0.26458 -0.15875,0.42333 l -0.05292,0.97896 -7.4877088,3.06917 -1.27,-1.27 c -0.264583,-0.26458 -0.687916,-0.26458 -0.92604101,0 -0.264584,0.26458 -0.264584,0.68792 0,0.92604 l 1.24354101,1.24354 -1.101592,2.75696 c 0,0.0265 -1.09444901,2.77283 -1.09444901,2.77283 l 1.23129101,0.1258 1.890792,-4.756 2.38125,2.38124 -1.402292,4.20688 -3.61987001,0.0794 0.75012001,-1.91149 -1.23129101,-0.1258 -0.816637,2.09021 -1.37940499,0.0529 c -0.15875,0 -0.291042,0.0529 -0.396875,0.13229 -0.105833,0.10583 -0.15875,0.26458 -0.15875,0.44979 0.05292,0.3175 0.291042,0.60854 0.582083,0.58208 h 0.661459 5.741458 0.211667 0.264583 0.449792 6.5087498 c 0.05292,0 0.07938,-0.0265 0.132291,-0.0529 0.02646,-0.0265 0.05292,-0.0794 0.05292,-0.13229 v -6.00605 z m -4.2068748,8.65187 2.9368748,-0.79375 0.05292,3.78354 z m 1.957917,3.81 0.132291,0.15875 -4.048125,-0.0265 1.005417,-3.01625 z m 1.0054158,-9.89542 0.07937,3.67771 -4.1274998,1.29646 -2.54,-2.54 z"
       id="path80-9-9-1-7"
       style="fill-opacity:1;stroke-width:0.0649999;stroke-miterlimit:4;stroke-dasharray:none;stroke-opacity:1"
       sodipodi:nodetypes="cccccccsccccccccccccccccccccccscscccccccccccccccc" />
  </g>
</svg>
