<?xml version="1.0" encoding="UTF-8" standalone="no"?>
<svg
   xmlns:dc="http://purl.org/dc/elements/1.1/"
   xmlns:cc="http://creativecommons.org/ns#"
   xmlns:rdf="http://www.w3.org/1999/02/22-rdf-syntax-ns#"
   xmlns:svg="http://www.w3.org/2000/svg"
   xmlns="http://www.w3.org/2000/svg"
   xmlns:sodipodi="http://sodipodi.sourceforge.net/DTD/sodipodi-0.dtd"
   xmlns:inkscape="http://www.inkscape.org/namespaces/inkscape"
   width="126.86996mm"
   height="15.08188mm"
   viewBox="0 0 126.86997 15.08188"
   version="1.1"
   id="svg8"
   inkscape:version="1.0.1 (3bc2e813f5, 2020-09-07)"
   sodipodi:docname="Logotype_dark_alt.svg"
   inkscape:export-filename="/home/matfantinel/Pictures/Matt_Fantinel logo/Logotype_black.png"
   inkscape:export-xdpi="120.17"
   inkscape:export-ydpi="120.17">
  <defs
     id="defs2" />
  <sodipodi:namedview
     id="base"
     pagecolor="#ffffff"
     bordercolor="#666666"
     borderopacity="1.0"
     inkscape:pageopacity="0.0"
     inkscape:pageshadow="2"
     inkscape:zoom="0.98994949"
     inkscape:cx="240.65678"
     inkscape:cy="87.054642"
     inkscape:document-units="mm"
     inkscape:current-layer="layer1"
     inkscape:document-rotation="0"
     showgrid="false"
     inkscape:window-width="1701"
     inkscape:window-height="1017"
     inkscape:window-x="2460"
     inkscape:window-y="0"
     inkscape:window-maximized="0" />
  <metadata
     id="metadata5">
    <rdf:RDF>
      <cc:Work
         rdf:about="">
        <dc:format>image/svg+xml</dc:format>
        <dc:type
           rdf:resource="http://purl.org/dc/dcmitype/StillImage" />
        <dc:title />
      </cc:Work>
    </rdf:RDF>
  </metadata>
  <g
     inkscape:label="Layer 1"
     inkscape:groupmode="layer"
     id="layer1"
     transform="translate(-20.540744,-158.03122)">
    <path
       id="path935-6-1-43-9"
       class="st5"
       d="m 37.727402,172.38518 h 1.74625 v -10.21291 l 5.000625,8.1227 h 0.185209 l 5.027082,-8.1227 v 10.21291 h 1.74625 v -13.335 h -1.799167 l -5.079999,8.20209 -5.027083,-8.20209 h -1.825625 v 13.335 z"
       style="fill:#1c1e26;fill-opacity:1;stroke:#1c1e26;stroke-width:0.87376;stroke-miterlimit:11.3386;stroke-opacity:1" />
    <path
       id="path937-5-5-0-87"
       class="st5"
       d="m 57.624068,172.67622 c 1.164166,0 2.090208,-0.5027 2.645833,-1.03187 v 0.74083 h 1.666875 v -6.08541 c 0,-1.79917 -1.084792,-3.36021 -3.81,-3.36021 -1.375833,0 -2.487083,0.34396 -3.4925,0.84666 v 1.74626 c 0.846667,-0.52917 2.143125,-1.05834 3.4925,-1.05834 1.402292,0 2.090208,0.74084 2.090208,1.64042 v 0.97896 c -0.582083,-0.3175 -1.561041,-0.58208 -2.592916,-0.58208 -1.878542,0 -3.518959,1.08478 -3.518959,2.96333 0,2.03729 1.455209,3.20145 3.518959,3.20145 z m 0.3175,-1.4552 c -1.164167,0 -2.037292,-0.66146 -2.037292,-1.74625 0,-0.97896 0.873125,-1.53459 2.037292,-1.53459 1.058333,0 1.931458,0.42334 2.275416,0.68792 v 1.66687 c -0.343958,0.34396 -1.190625,0.92605 -2.275416,0.92605 z"
       style="fill:#1c1e26;fill-opacity:1;stroke:#1c1e26;stroke-width:0.87376;stroke-miterlimit:11.3386;stroke-opacity:1" />
    <path
       id="path939-9-7-0-2"
       sodipodi:nodetypes="sccssccccccccccss"
       class="st5"
       d="m 67.686674,172.67098 c 0.608542,0 1.217084,-0.13229 1.375834,-0.18521 v -1.48167 c -0.211667,0.0794 -0.555625,0.13229 -0.846667,0.13229 -0.926042,0 -1.375833,-0.42333 -1.375833,-1.27 v -5.10645 h 2.301875 v -1.53459 h -2.275417 v -3.65125 l -1.5875,0.9525 v 2.69875 h -1.825625 v 1.53459 h 1.666875 v 5.37104 c 0,1.66687 1.005417,2.54 2.566458,2.54 z"
       style="fill:#1c1e26;fill-opacity:1;stroke:#1c1e26;stroke-width:0.87376;stroke-miterlimit:11.3386;stroke-opacity:1" />
    <path
       id="path941-3-7-9-8"
       sodipodi:nodetypes="sccssccccccccccss"
       class="st5"
       d="m 74.512924,172.67098 c 0.608542,0 2.963334,-5.3e-4 2.963334,-5.3e-4 l -2.12e-4,-1.534 c 0,0 -2.142913,-9e-5 -2.433955,-9e-5 -0.926042,0 -1.375833,-0.42334 -1.375833,-1.27 v -5.10642 h 2.2225 v -1.53459 h -2.2225 v -3.65125 l -1.5875,0.9525 v 2.69875 h -2.143125 l -0.02646,1.53459 h 2.037292 v 5.37104 c 0,1.66687 1.005417,2.54 2.566459,2.54 z"
       style="fill:#1c1e26;fill-opacity:1;stroke:#1c1e26;stroke-width:0.87376;stroke-miterlimit:11.3386;stroke-opacity:1" />
    <path
       id="path941-3-7-9-6-29"
       style="fill:#1c1e26;fill-opacity:1;stroke:#1c1e26;stroke-width:0.87376;stroke-miterlimit:11.3386;stroke-opacity:1"
       d="m 81.460962,169.92168 c -0.02302,0.80276 -0.469238,1.20716 -1.370965,1.20716 -0.291042,0 -1.904788,5.3e-4 -1.904788,5.3e-4 v 1.53376 c 0,0 1.825942,5.3e-4 2.434484,5.3e-4 1.561042,0 2.566247,-0.87302 2.566247,-2.5399 v -0.20205 z"
       sodipodi:nodetypes="csccsscc" />
    <path
       id="path943-7-6-2-9"
       class="st5"
       d="m 83.187554,169.4986 v -2.80053 h 5.67854 v -1.66769 h -5.67854 v -4.3148 h 6.280388 v -1.66769 h -8.033676 l 0.02783,10.43838 z"
       style="opacity:1;fill:#1c1e26;fill-opacity:1;stroke:#1c1e26;stroke-width:0.869172;stroke-miterlimit:11.3386;stroke-opacity:1"
       sodipodi:nodetypes="ccccccccccc" />
    <path
       id="path945-4-7-5-6"
       class="st5"
       d="m 94.692193,172.67622 c 1.164166,0 2.090208,-0.5027 2.645833,-1.03187 v 0.74083 h 1.666875 v -6.08541 c 0,-1.79917 -1.084792,-3.36021 -3.81,-3.36021 -1.375833,0 -2.487083,0.34396 -3.4925,0.84666 v 1.74626 c 0.846667,-0.52917 2.143125,-1.05834 3.4925,-1.05834 1.402292,0 2.090208,0.74084 2.090208,1.64042 v 0.97896 c -0.582083,-0.3175 -1.561041,-0.58208 -2.592916,-0.58208 -1.878542,0 -3.518959,1.08478 -3.518959,2.96333 -0.02646,2.03729 1.455209,3.20145 3.518959,3.20145 z m 0.291041,-1.4552 c -1.164166,0 -2.037291,-0.66146 -2.037291,-1.74625 0,-0.97896 0.873125,-1.53459 2.037291,-1.53459 1.058334,0 1.931459,0.42334 2.275417,0.68792 v 1.66687 c -0.3175,0.34396 -1.190625,0.92605 -2.275417,0.92605 z"
       style="fill:#1c1e26;fill-opacity:1;stroke:#1c1e26;stroke-width:0.87376;stroke-miterlimit:11.3386;stroke-opacity:1" />
    <path
       id="path947-5-3-4-0"
       class="st5"
       d="m 101.65073,172.38518 h 1.7198 v -6.58812 c 0.58208,-0.74083 1.34937,-1.21708 2.32833,-1.21708 1.13771,0 2.14312,0.82021 2.14312,2.2225 v 5.60916 h 1.7198 v -6.05895 c 0,-2.2225 -1.69334,-3.41313 -3.43959,-3.41313 -1.21708,0 -2.14312,0.52916 -2.75166,1.19063 v -0.87313 h -1.66688 z"
       style="fill:#1c1e26;fill-opacity:1;stroke:#1c1e26;stroke-width:0.87376;stroke-miterlimit:11.3386;stroke-opacity:1" />
    <path
       id="path949-2-6-0-27"
       class="st5"
       d="m 115.48844,172.67622 c 0.60854,0 1.21708,-0.13229 1.37583,-0.1852 v -1.48167 c -0.21166,0.0794 -0.55562,0.13229 -0.84666,0.13229 -0.92605,0 -1.37584,-0.42333 -1.37584,-1.27 v -5.10645 h 2.2225 v -1.53459 h -2.2225 v -3.65125 l -1.5875,0.9525 v 2.69875 h -1.7727 v 1.53459 h 1.66687 v 5.37103 c -0.0265,1.66688 0.97896,2.54 2.54,2.54 z"
       style="fill:#1c1e26;fill-opacity:1;stroke:#1c1e26;stroke-width:0.87376;stroke-miterlimit:11.3386;stroke-opacity:1" />
    <path
       id="path951-5-5-5-6"
       class="st5"
       d="m 120.09219,161.0081 c 0.71437,0 1.27,-0.55562 1.27,-1.27 0,-0.71437 -0.52917,-1.27 -1.27,-1.27 -0.71438,0 -1.24354,0.55563 -1.24354,1.27 0,0.71438 0.52916,1.27 1.24354,1.27 z m -0.84667,11.37708 h 1.71979 v -9.12812 h -1.71979 z"
       style="fill:#1c1e26;fill-opacity:1;stroke:#1c1e26;stroke-width:0.87376;stroke-miterlimit:11.3386;stroke-opacity:1" />
    <path
       id="path953-4-6-9-1"
       class="st5"
       d="m 124.00802,172.38518 h 1.71979 v -6.58812 c 0.58209,-0.74083 1.34938,-1.21708 2.32834,-1.21708 1.13771,0 2.14312,0.82021 2.14312,2.2225 v 5.60916 h 1.71979 v -6.05895 c 0,-2.2225 -1.69333,-3.41313 -3.43958,-3.41313 -1.21708,0 -2.14312,0.52916 -2.75167,1.19063 v -0.87313 h -1.66687 v 9.12812 z"
       style="fill:#1c1e26;fill-opacity:1;stroke:#1c1e26;stroke-width:0.87376;stroke-miterlimit:11.3386;stroke-opacity:1" />
    <path
       id="path955-7-3-4-3"
       class="st5"
       d="m 138.69237,172.67622 c 1.87854,0 3.04271,-0.66145 3.83646,-1.27 v -1.69333 c -1.24354,0.97896 -2.35479,1.40229 -3.83646,1.40229 -1.53458,0 -2.77812,-1.08479 -2.8575,-2.61937 h 7.09083 c 0.0265,-0.10584 0.0265,-0.37042 0.0265,-0.60854 0,-2.88396 -1.64041,-4.92125 -4.47146,-4.92125 -2.4077,0 -4.49791,1.905 -4.49791,4.84187 0.0265,3.20146 2.16958,4.86833 4.70958,4.86833 z m -2.77812,-5.68853 c 0.0794,-1.32292 1.08479,-2.48709 2.59291,-2.48709 1.66688,0 2.56646,1.03188 2.61938,2.48709 z"
       style="fill:#1c1e26;fill-opacity:1;stroke:#1c1e26;stroke-width:0.87376;stroke-miterlimit:11.3386;stroke-opacity:1" />
    <path
       id="path957-4-9-6-2"
       class="st5"
       d="m 145.25404,172.38518 h 1.71979 v -13.81125 h -1.71979 z"
       style="fill:#1c1e26;fill-opacity:1;stroke:#1c1e26;stroke-width:0.87376;stroke-miterlimit:11.3386;stroke-opacity:1" />
    <path
       class="st9"
       d="m 35.098873,158.7957 c 0,-0.0265 0,-0.0794 -0.02646,-0.10584 -0.105833,-0.18521 -0.3175,-0.29104 -0.502708,-0.26458 -0.15875,0 -0.291042,0.0529 -0.396875,0.13229 -0.105833,0.10583 -0.15875,0.26458 -0.15875,0.42333 l -0.05292,0.97896 -7.487708,3.06917 -1.27,-1.27 c -0.264583,-0.26458 -0.687917,-0.26458 -0.926042,0 -0.264583,0.26458 -0.264583,0.68792 0,0.92604 l 1.243542,1.24354 -1.101593,2.75696 c 0,0.0265 -1.094449,2.77283 -1.094449,2.77283 l 1.231292,0.1258 1.890792,-4.756 2.38125,2.38124 -1.402292,4.20688 -3.61987,0.0794 0.75012,-1.91149 -1.231292,-0.1258 -0.816636,2.09021 -1.379405,0.0529 c -0.15875,0 -0.291042,0.0529 -0.396875,0.13229 -0.105833,0.10583 -0.15875,0.26458 -0.15875,0.44979 0.05292,0.3175 0.291042,0.60854 0.582083,0.58208 h 0.661458 5.741459 0.211666 0.264584 0.449791 6.50875 c 0.05292,0 0.07937,-0.0265 0.132292,-0.0529 0.02646,-0.0265 0.05292,-0.0794 0.05292,-0.13229 v -6.00605 z m -4.206875,8.65187 2.936875,-0.79375 0.05292,3.78354 z m 1.957916,3.81 0.132292,0.15875 -4.048125,-0.0265 1.005417,-3.01625 z m 1.005417,-9.89542 0.07937,3.67771 -4.1275,1.29646 -2.54,-2.54 z"
       id="path80-9-9-1"
       style="fill:#ffffff;fill-opacity:1;stroke:#ffffff;stroke-width:0.0649999;stroke-miterlimit:4;stroke-dasharray:none;stroke-opacity:1"
       sodipodi:nodetypes="cccccccsccccccccccccccccccccccscscccccccccccccccc" />
  </g>
</svg>
